<svg width="24" height="24" viewBox="0 0 24 24" fill="none" xmlns="http://www.w3.org/2000/svg">
<path d="M2 12C2 7.28595 2 4.92893 3.46447 3.46447C4.92893 2 7.28595 2 12 2C16.714 2 19.0711 2 20.5355 3.46447C22 4.92893 22 7.28595 22 12C22 16.714 22 19.0711 20.5355 20.5355C19.0711 22 16.714 22 12 22C7.28595 22 4.92893 22 3.46447 20.5355C2 19.0711 2 16.714 2 12Z" fill="#20B86D"/>
<path d="M9.85714 10H14.1429C15.4897 10 16.1632 10 16.5816 9.70711C17 9.41421 17 8.94281 17 8C17 7.05719 17 6.58579 16.5816 6.29289C16.1632 6 15.4897 6 14.1429 6H9.85714C8.51027 6 7.83684 6 7.41842 6.29289C7 6.58579 7 7.05719 7 8C7 8.94281 7 9.41421 7.41842 9.70711C7.83684 10 8.51027 10 9.85714 10Z" stroke="#6EE1A8" stroke-width="1.5"/>
<path d="M11 18H17M7 18H8" stroke="#6EE1A8" stroke-width="1.5" stroke-linecap="round" stroke-linejoin="round"/>
<path d="M11 14H17M7 14H8" stroke="#6EE1A8" stroke-width="1.5" stroke-linecap="round" stroke-linejoin="round"/>
</svg>
