<svg width="24" height="24" viewBox="0 0 24 24" fill="none" xmlns="http://www.w3.org/2000/svg">
<path d="M6.75 12C6.75 11.5852 7.086 11.25 7.5 11.25C7.914 11.25 8.25 11.5852 8.25 12C8.25 12.4515 8.3595 13.5 9.375 13.5C10.2052 13.5 10.5 13.2052 10.5 12.375C10.5 12.0247 10.3965 11.523 9.50025 11.2072C9.156 11.0857 8.949 10.7333 9.0105 10.3733C9.072 10.014 9.38475 9.75 9.75 9.75C10.1632 9.75 10.5 9.414 10.5 9C10.5 8.586 10.1632 8.25 9.75 8.25C9.483 8.25 9.234 8.394 9.09975 8.62575C8.892 8.985 8.4345 9.10725 8.0745 8.89875C7.716 8.69175 7.59375 8.232 7.8015 7.87425C8.2035 7.1805 8.94975 6.75 9.75 6.75C10.9905 6.75 12 7.7595 12 9C12 9.6075 11.754 10.1565 11.361 10.5615C11.9858 10.9043 12.7358 11.046 13.0492 10.725C13.2525 10.479 13.6845 9 15 9C16.2615 9 17.25 10.3177 17.25 12C17.25 13.6823 16.2615 15 15 15C14.5522 15 14.1233 14.832 13.7572 14.5148C13.4445 14.2433 13.4115 13.7692 13.683 13.4565C13.9537 13.1437 14.4278 13.1108 14.7413 13.3822C14.8313 13.4602 14.9183 13.5 15 13.5C15.306 13.5 15.75 12.9157 15.75 12C15.75 11.0843 15.306 10.5 15 10.5C14.769 10.5 14.496 11.3925 14.1217 11.7743C13.5533 12.354 12.7762 12.483 11.9985 12.354C11.9985 12.3615 12 12.3675 12 12.375C12 14.0437 11.043 15 9.375 15C7.80525 15 6.75 13.7948 6.75 12ZM12 6C12 5.58525 12.336 5.25 12.75 5.25C13.164 5.25 13.5 5.58525 13.5 6C13.5 6.44175 14.1165 6.75 15 6.75C15.4462 6.75 15.8663 6.67425 16.215 6.53175C16.5983 6.37125 17.037 6.55725 17.1937 6.9405C17.3505 7.32375 17.1675 7.7625 16.785 7.91925C16.257 8.136 15.6405 8.25 15 8.25C12.939 8.25 12 7.08375 12 6ZM20.25 1.5H5.625C4.1775 1.5 3 2.6775 3 4.125V19.875V19.8765C3.00075 21.3232 4.17825 22.5 5.625 22.5H20.25C20.9303 22.5 21.2603 21.6593 20.7555 21.1965C20.0858 20.5567 20.0812 19.2098 20.7472 18.5618C20.9018 18.4245 20.9993 18.2257 21 18.0037C21 18.0007 21 17.9985 21 17.9963V2.25C21 1.83525 20.664 1.5 20.25 1.5ZM18.927 21H5.625C5.00475 21 4.5 20.4953 4.5 19.875C4.5 19.2547 5.00475 18.75 5.625 18.75H18.927C18.6908 19.47 18.6908 20.28 18.927 21ZM19.5 17.25H5.625C5.22225 17.25 4.84125 17.3407 4.5 17.5035V4.125C4.5 3.50475 5.00475 3 5.625 3H19.5V17.25ZM14.25 5.25V4.875C14.25 4.46025 14.586 4.125 15 4.125C15.414 4.125 15.75 4.46025 15.75 4.875V5.25C15.75 5.66475 15.414 6 15 6C14.586 6 14.25 5.66475 14.25 5.25Z" fill="#141B34"/>
<path d="M6.75 12C6.75 11.5852 7.086 11.25 7.5 11.25C7.914 11.25 8.25 11.5852 8.25 12C8.25 12.4515 8.3595 13.5 9.375 13.5C10.2052 13.5 10.5 13.2052 10.5 12.375C10.5 12.0247 10.3965 11.523 9.50025 11.2072C9.156 11.0857 8.949 10.7333 9.0105 10.3733C9.072 10.014 9.38475 9.75 9.75 9.75C10.1632 9.75 10.5 9.414 10.5 9C10.5 8.586 10.1632 8.25 9.75 8.25C9.483 8.25 9.234 8.394 9.09975 8.62575C8.892 8.985 8.4345 9.10725 8.0745 8.89875C7.716 8.69175 7.59375 8.232 7.8015 7.87425C8.2035 7.1805 8.94975 6.75 9.75 6.75C10.9905 6.75 12 7.7595 12 9C12 9.6075 11.754 10.1565 11.361 10.5615C11.9858 10.9043 12.7358 11.046 13.0492 10.725C13.2525 10.479 13.6845 9 15 9C16.2615 9 17.25 10.3177 17.25 12C17.25 13.6823 16.2615 15 15 15C14.5522 15 14.1233 14.832 13.7572 14.5148C13.4445 14.2433 13.4115 13.7692 13.683 13.4565C13.9537 13.1437 14.4278 13.1108 14.7413 13.3822C14.8313 13.4602 14.9183 13.5 15 13.5C15.306 13.5 15.75 12.9157 15.75 12C15.75 11.0843 15.306 10.5 15 10.5C14.769 10.5 14.496 11.3925 14.1217 11.7743C13.5533 12.354 12.7762 12.483 11.9985 12.354C11.9985 12.3615 12 12.3675 12 12.375C12 14.0437 11.043 15 9.375 15C7.80525 15 6.75 13.7948 6.75 12ZM12 6C12 5.58525 12.336 5.25 12.75 5.25C13.164 5.25 13.5 5.58525 13.5 6C13.5 6.44175 14.1165 6.75 15 6.75C15.4462 6.75 15.8663 6.67425 16.215 6.53175C16.5983 6.37125 17.037 6.55725 17.1937 6.9405C17.3505 7.32375 17.1675 7.7625 16.785 7.91925C16.257 8.136 15.6405 8.25 15 8.25C12.939 8.25 12 7.08375 12 6ZM20.25 1.5H5.625C4.1775 1.5 3 2.6775 3 4.125V19.875V19.8765C3.00075 21.3232 4.17825 22.5 5.625 22.5H20.25C20.9303 22.5 21.2603 21.6593 20.7555 21.1965C20.0858 20.5567 20.0812 19.2098 20.7472 18.5618C20.9018 18.4245 20.9993 18.2257 21 18.0037C21 18.0007 21 17.9985 21 17.9963V2.25C21 1.83525 20.664 1.5 20.25 1.5ZM18.927 21H5.625C5.00475 21 4.5 20.4953 4.5 19.875C4.5 19.2547 5.00475 18.75 5.625 18.75H18.927C18.6908 19.47 18.6908 20.28 18.927 21ZM19.5 17.25H5.625C5.22225 17.25 4.84125 17.3407 4.5 17.5035V4.125C4.5 3.50475 5.00475 3 5.625 3H19.5V17.25ZM14.25 5.25V4.875C14.25 4.46025 14.586 4.125 15 4.125C15.414 4.125 15.75 4.46025 15.75 4.875V5.25C15.75 5.66475 15.414 6 15 6C14.586 6 14.25 5.66475 14.25 5.25Z" fill="#0E5DD8"/>
<path d="M6.75 12C6.75 11.5852 7.086 11.25 7.5 11.25C7.914 11.25 8.25 11.5852 8.25 12C8.25 12.4515 8.3595 13.5 9.375 13.5C10.2053 13.5 10.5 13.2052 10.5 12.375C10.5 12.0247 10.3965 11.523 9.50025 11.2072C9.156 11.0858 8.949 10.7333 9.0105 10.3733C9.072 10.014 9.38475 9.75 9.75 9.75C10.1632 9.75 10.5 9.414 10.5 9C10.5 8.586 10.1632 8.25 9.75 8.25C9.483 8.25 9.234 8.394 9.09975 8.62575C8.892 8.985 8.4345 9.10725 8.0745 8.89875C7.716 8.69175 7.59375 8.232 7.8015 7.87425C8.2035 7.1805 8.94975 6.75 9.75 6.75C10.9905 6.75 12 7.7595 12 9C12 9.6075 11.754 10.1565 11.361 10.5615C11.9857 10.9042 12.7358 11.046 13.0493 10.725C13.2525 10.479 13.6845 9 15 9C16.2615 9 17.25 10.3177 17.25 12C17.25 13.6823 16.2615 15 15 15C14.5522 15 14.1233 14.832 13.7573 14.5148C13.4445 14.2433 13.4115 13.7692 13.683 13.4565C13.9537 13.1437 14.4278 13.1108 14.7413 13.3822C14.8313 13.4602 14.9183 13.5 15 13.5C15.306 13.5 15.75 12.9157 15.75 12C15.75 11.0842 15.306 10.5 15 10.5C14.769 10.5 14.496 11.3925 14.1218 11.7743C13.5533 12.354 12.7762 12.483 11.9985 12.354C11.9985 12.3615 12 12.3675 12 12.375C12 14.0437 11.043 15 9.375 15C7.80525 15 6.75 13.7948 6.75 12ZM12 6C12 5.58525 12.336 5.25 12.75 5.25C13.164 5.25 13.5 5.58525 13.5 6C13.5 6.44175 14.1165 6.75 15 6.75C15.4462 6.75 15.8663 6.67425 16.215 6.53175C16.5983 6.37125 17.037 6.55725 17.1937 6.9405C17.3505 7.32375 17.1675 7.7625 16.785 7.91925C16.257 8.136 15.6405 8.25 15 8.25C12.939 8.25 12 7.08375 12 6ZM14.25 5.25V4.875C14.25 4.46025 14.586 4.125 15 4.125C15.414 4.125 15.75 4.46025 15.75 4.875V5.25C15.75 5.66475 15.414 6 15 6C14.586 6 14.25 5.66475 14.25 5.25Z" fill="#B0CFFF"/>
</svg>
