<svg width="19" height="22" viewBox="0 0 19 22" fill="none" xmlns="http://www.w3.org/2000/svg">
<path d="M17.75 0.5H3.125C1.6775 0.5 0.5 1.6775 0.5 3.125V18.875C0.50075 20.3225 1.6775 21.5 3.125 21.5H17.75C18.4333 21.5 18.7588 20.6547 18.2533 20.195C17.5842 19.5515 17.582 18.2022 18.2518 17.558C18.4025 17.4215 18.4985 17.225 18.5 17.006C18.5 17.003 18.5 17 18.5 16.997V1.25C18.5 0.836 18.1647 0.5 17.75 0.5ZM11.4275 3.7475L12.3725 2.8025C12.443 2.732 12.557 2.732 12.6275 2.8025L13.5725 3.7475C13.643 3.818 13.643 3.93275 13.5725 4.00325L12.6275 4.94675C12.557 5.01725 12.443 5.01725 12.3725 4.94675L11.4275 4.0025C11.3577 3.932 11.3577 3.818 11.4275 3.7475ZM9.6155 5H10.2133C10.2448 5 10.274 5.015 10.2935 5.03975C11.0548 6.0185 12.4175 6.15275 13.6205 5.58275C13.682 5.5535 13.7555 5.5685 13.7997 5.62025L14.612 6.59075C14.6795 6.67175 14.6495 6.7955 14.5513 6.8345C13.961 7.073 13.0835 7.25 12.5105 7.25C10.5192 7.25 9.575 6.16175 9.5135 5.11025C9.50975 5.051 9.5555 5 9.6155 5ZM4.39475 11H4.92725C4.9895 11 5.0435 11.0428 5.05625 11.1035C5.1605 11.591 5.933 12.4925 6.872 12.5C7.5335 12.5052 8.04875 11.9367 8.006 11.2767C7.9835 10.9355 7.8245 10.4945 7.01 10.208L6.92675 10.1788L6.6335 8.75H7.259C8.054 8.75 8.29925 7.65575 7.57925 7.32125C7.24925 7.16825 6.8885 7.27175 6.68 7.523C6.63275 7.58 6.551 7.592 6.48725 7.5545L5.456 6.9575C5.37575 6.911 5.35025 6.80525 5.4035 6.728C6.03425 5.80925 7.3025 5.432 8.40425 6.05825C9.64925 6.76625 9.896 8.51 8.87 9.5645C9.49325 9.9035 10.2372 10.043 10.55 9.7235C10.7457 9.48725 11.1845 8 12.5 8C13.7615 8 14.75 9.31775 14.75 11C14.75 12.6823 13.7615 14 12.5 14C11.1335 14 10.667 12.8135 10.9017 12.0087C10.9332 11.9007 11.0705 11.8715 11.1462 11.9548C11.4665 12.3057 11.9405 12.5075 12.5 12.5C12.806 12.4955 13.25 11.9157 13.25 11C13.25 10.0843 12.806 9.5 12.5 9.5C11.9885 9.5 12.0643 11.7762 9.50225 11.3547C9.506 12.7947 8.339 13.997 6.89 14C5.35775 14.003 4.3145 12.8585 4.26125 11.1395C4.259 11.063 4.319 11 4.39475 11ZM16.4263 20H3.125C2.50475 20 2 19.4953 2 18.875C2 18.2547 2.50475 17.75 3.125 17.75H16.4263C16.1908 18.4685 16.1908 19.2815 16.4263 20Z" fill="#0E5DD8"/>
</svg>
