<svg width="40" height="40" viewBox="0 0 40 40" fill="none" xmlns="http://www.w3.org/2000/svg">
<g opacity="0.2">
<circle cx="20" cy="20" r="20" fill="#007FFF"/>
</g>
<path d="M20.0572 9.75C22.2479 9.74999 23.9686 9.74998 25.312 9.93059C26.6886 10.1157 27.7809 10.5027 28.6391 11.3609C29.4973 12.2191 29.8843 13.3114 30.0694 14.688C30.25 16.0314 30.25 17.7521 30.25 19.9428V19.9428V20.0572V20.0572C30.25 22.2479 30.25 23.9686 30.0694 25.312C29.8843 26.6886 29.4973 27.7809 28.6391 28.6391C27.7809 29.4973 26.6886 29.8843 25.312 30.0694C23.9686 30.25 22.2479 30.25 20.0572 30.25H20.0572H19.9428H19.9428C17.7521 30.25 16.0314 30.25 14.688 30.0694C13.3114 29.8843 12.2191 29.4973 11.3609 28.6391C10.5027 27.7809 10.1157 26.6886 9.93059 25.312C9.74998 23.9686 9.74999 22.2479 9.75 20.0572V19.9428C9.74999 17.7521 9.74998 16.0314 9.93059 14.688C10.1157 13.3114 10.5027 12.2191 11.3609 11.3609C12.2191 10.5027 13.3114 10.1157 14.688 9.93059C16.0314 9.74998 17.7521 9.74999 19.9428 9.75H20.0572Z" fill="#007FFF"/>
<g opacity="0.4">
<path fill-rule="evenodd" clip-rule="evenodd" d="M19.6819 18.5273C19.9289 18.5605 20.2707 18.6494 20.5607 18.9394C20.8507 19.2294 20.9396 19.5711 20.9728 19.8182C21.0003 20.0228 21.0001 20.2608 21 20.4606C21 20.474 21 20.4871 21 20.5V24.5C21 25.0523 20.5523 25.5 20 25.5C19.4477 25.5 19 25.0523 19 24.5V20.5C18.4477 20.5 18 20.0523 18 19.5C18 18.9477 18.4477 18.5 19 18.5C19.0129 18.5 19.0261 18.5 19.0394 18.5C19.2393 18.4999 19.4772 18.4997 19.6819 18.5273Z" fill="white"/>
<path fill-rule="evenodd" clip-rule="evenodd" d="M18.9999 15.5C18.9999 14.9477 19.4456 14.5 19.9954 14.5H20.0044C20.5542 14.5 20.9999 14.9477 20.9999 15.5C20.9999 16.0523 20.5542 16.5 20.0044 16.5H19.9954C19.4456 16.5 18.9999 16.0523 18.9999 15.5Z" fill="white"/>
</g>
</svg>
