<svg width="50" height="50" viewBox="0 0 50 50" fill="none" xmlns="http://www.w3.org/2000/svg">
<circle opacity="0.2" cx="25" cy="25" r="25" fill="#0E5DD8"/>
<path d="M15.5299 27.394C15.3173 28.7471 16.268 29.6862 17.4321 30.1542C21.8948 31.9486 28.1052 31.9486 32.5679 30.1542C33.732 29.6862 34.6827 28.7471 34.4701 27.394C34.3394 26.5625 33.6932 25.8701 33.2144 25.194C32.5873 24.2975 32.525 23.3197 32.5249 22.2794C32.5249 18.2591 29.1559 15 25 15C20.8441 15 17.4751 18.2591 17.4751 22.2794C17.475 23.3197 17.4127 24.2975 16.7856 25.194C16.3068 25.8701 15.6606 26.5625 15.5299 27.394Z" stroke="#0E5DD8" stroke-width="1.5" stroke-linecap="round" stroke-linejoin="round"/>
<path opacity="0.4" d="M22 34C22.7961 34.6219 23.8475 35 25 35C26.1525 35 27.2039 34.6219 28 34" stroke="#0E5DD8" stroke-width="1.5" stroke-linecap="round" stroke-linejoin="round"/>
</svg>
