<svg width="40" height="40" viewBox="0 0 40 40" fill="none" xmlns="http://www.w3.org/2000/svg">
<g opacity="0.2">
<circle cx="20" cy="20" r="20" fill="#0E5DD8"/>
</g>
<path d="M11.9279 17.277C11.9279 12.8415 15.5442 9.25 20 9.25C24.4558 9.25 28.0721 12.8415 28.0721 17.277C28.0722 18.3088 28.1416 19.0874 28.6173 19.7873C28.7984 20.0498 29.1413 20.4936 29.3697 20.8505C29.6255 21.2503 29.8754 21.7324 29.9613 22.2942C30.2416 24.127 28.9494 25.3136 27.6625 25.8454C23.1298 27.7182 16.8702 27.7182 12.3375 25.8454C11.0506 25.3136 9.75836 24.127 10.0387 22.2942C10.1246 21.7324 10.3745 21.2503 10.6303 20.8505C10.8587 20.4936 11.2017 20.0497 11.3827 19.7872C11.8584 19.0873 11.9278 18.3087 11.9279 17.277Z" fill="#0E5DD8"/>
<path opacity="0.4" d="M22.7776 29.9511C21.9742 30.4563 21.0187 30.7477 19.9985 30.7477C18.9782 30.7477 18.0227 30.4563 17.2193 29.9511C16.5063 29.5027 16.1498 29.2784 16.2745 28.9057C16.3993 28.533 16.8913 28.5747 17.8752 28.6582C19.2824 28.7776 20.7146 28.7776 22.1217 28.6582C23.1057 28.5747 23.5976 28.533 23.7224 28.9057C23.8472 29.2784 23.4906 29.5027 22.7776 29.9511Z" fill="#0E5DD8"/>
</svg>
