<svg width="40" height="40" viewBox="0 0 40 40" fill="none" xmlns="http://www.w3.org/2000/svg">
<circle opacity="0.2" cx="20" cy="20" r="20" fill="#00D4FC"/>
<path d="M17.9342 9.25L18 9.25L22.0658 9.25C22.9523 9.24995 23.7161 9.24991 24.3278 9.33215C24.9833 9.42028 25.6117 9.61902 26.1213 10.1287C26.631 10.6383 26.8297 11.2667 26.9179 11.9222C27.0001 12.5339 27.0001 13.2977 27 14.1842L27 14.25C27 14.8023 26.5523 15.25 26 15.25C25.4477 15.25 25 14.8023 25 14.25C25 13.2789 24.9979 12.6512 24.9357 12.1887C24.8774 11.755 24.7832 11.619 24.7071 11.5429C24.631 11.4668 24.495 11.3726 24.0613 11.3143C23.5988 11.2521 22.9711 11.25 22 11.25H18C17.0289 11.25 16.4012 11.2521 15.9387 11.3143C15.505 11.3726 15.369 11.4668 15.2929 11.5429C15.2168 11.619 15.1226 11.755 15.0643 12.1887C15.0021 12.6512 15 13.2789 15 14.25C15 14.8023 14.5523 15.25 14 15.25C13.4477 15.25 13 14.8023 13 14.25L13 14.1842C13 13.2977 12.9999 12.5339 13.0821 11.9222C13.1703 11.2667 13.369 10.6383 13.8787 10.1287C14.3883 9.61902 15.0167 9.42028 15.6722 9.33215C16.2839 9.24991 17.0477 9.24995 17.9342 9.25Z" fill="#00D4FC"/>
<path opacity="0.4" d="M24.0391 17.25C25.1754 17.25 26.0826 17.25 26.8104 17.3206C27.558 17.3931 28.1948 17.5456 28.7611 17.9014C29.3018 18.2411 29.7589 18.6982 30.0986 19.2389C30.4544 19.8052 30.6069 20.442 30.6794 21.1896C30.75 21.9174 30.75 22.8246 30.75 23.9609V24.0391C30.75 25.1754 30.75 26.0826 30.6794 26.8104C30.6069 27.558 30.4544 28.1948 30.0986 28.7611C29.7589 29.3018 29.3018 29.7589 28.7611 30.0986C28.1948 30.4544 27.558 30.6069 26.8104 30.6794C26.0826 30.75 25.1754 30.75 24.0391 30.75H15.9609C14.8246 30.75 13.9174 30.75 13.1896 30.6794C12.442 30.6069 11.8052 30.4544 11.2389 30.0986C10.6982 29.7589 10.2411 29.3018 9.90142 28.7611C9.54555 28.1948 9.39306 27.558 9.32056 26.8104C9.24998 26.0826 9.24999 25.1754 9.25 24.0391V24.0391V23.9609V23.9609C9.24999 22.8246 9.24998 21.9174 9.32056 21.1896C9.39306 20.442 9.54555 19.8052 9.90142 19.2389C10.2411 18.6982 10.6982 18.2411 11.2389 17.9014C11.8052 17.5456 12.442 17.3931 13.1896 17.3206C13.9174 17.25 14.8246 17.25 15.9609 17.25H15.9609H24.0391H24.0391Z" fill="#00D4FC"/>
<path fill-rule="evenodd" clip-rule="evenodd" d="M17 21C17.5523 21 18 21.4477 18 22C18 22.5523 18.4477 23 19 23H21C21.5523 23 22 22.5523 22 22C22 21.4477 22.4477 21 23 21C23.5523 21 24 21.4477 24 22C24 23.6569 22.6569 25 21 25H19C17.3431 25 16 23.6569 16 22C16 21.4477 16.4477 21 17 21Z" fill="#00D4FC"/>
<path d="M24.0402 13.25H15.9598C15.294 13.25 14.7344 13.25 14.2766 13.2874C13.7978 13.3265 13.3429 13.4114 12.911 13.6315C12.2525 13.967 11.717 14.5025 11.3815 15.161C11.1614 15.5929 11.0765 16.0479 11.0374 16.5266C11.0027 16.9504 11.0002 17.4613 11 18.0631C11.0776 18.0066 11.1573 17.9527 11.2389 17.9014C11.7578 17.5754 12.3359 17.42 13.0041 17.3405C13.008 17.0849 13.0157 16.8733 13.0307 16.6894C13.0597 16.3344 13.111 16.1719 13.1635 16.069C13.3073 15.7868 13.5368 15.5573 13.819 15.4135C13.9219 15.3611 14.0844 15.3097 14.4394 15.2807C14.8061 15.2508 15.2834 15.25 16 15.25H24C24.7166 15.25 25.1938 15.2508 25.5606 15.2807C25.9156 15.3097 26.0781 15.3611 26.181 15.4135C26.4632 15.5573 26.6927 15.7868 26.8365 16.069C26.8889 16.1719 26.9402 16.3344 26.9692 16.6894C26.9843 16.8733 26.992 17.0849 26.9959 17.3405C27.6641 17.42 28.2422 17.5754 28.7611 17.9014C28.8427 17.9527 28.9223 18.0066 29 18.0631C28.9998 17.4613 28.9972 16.9504 28.9626 16.5266C28.9235 16.0479 28.8386 15.5929 28.6185 15.161C28.283 14.5025 27.7475 13.967 27.089 13.6315C26.6571 13.4114 26.2021 13.3265 25.7234 13.2874C25.2656 13.25 24.706 13.25 24.0402 13.25Z" fill="#00D4FC"/>
</svg>
