<svg width="40" height="40" viewBox="0 0 40 40" fill="none" xmlns="http://www.w3.org/2000/svg">
<g opacity="0.2">
<circle cx="20" cy="20" r="20" fill="#C543CE"/>
</g>
<path opacity="0.4" d="M26.5856 16.2566C26.983 16.2245 27.3853 16.3093 27.7343 16.5053C27.9852 16.6461 28.1725 16.8351 28.3079 16.9901C28.3826 17.0757 28.4837 17.2039 28.5572 17.2971L28.5572 17.2971C29.0132 17.851 29.4794 18.4205 29.7531 18.8091C30.0358 19.2104 30.2499 19.5927 30.3683 20.0259C30.5429 20.6652 30.5429 21.3348 30.3683 21.9741C30.2052 22.5711 29.8769 23.0849 29.5492 23.5137C29.3508 23.7733 29.1103 24.052 28.8985 24.2975L28.8984 24.2975C28.7825 24.4318 28.6175 24.6265 28.5304 24.7323C28.2893 25.0265 28.0513 25.3168 27.7343 25.4947C27.3853 25.6906 26.983 25.7755 26.5856 25.7434C26.2279 25.7144 25.7372 25.4904 25.3742 25.3243C25.0181 25.1652 24.3465 24.8652 24.0908 24.1081C23.9977 23.8327 23.9985 23.5384 23.9991 23.2645V18.7355C23.9985 18.4616 23.9977 18.1672 24.0908 17.8919C24.3465 17.1348 25.0181 16.8348 25.3742 16.6757C25.7372 16.5096 26.2279 16.2856 26.5856 16.2566Z" fill="#C543CE"/>
<path opacity="0.4" d="M12.9124 16.2566C12.515 16.2245 12.1127 16.3093 11.7637 16.5053C11.5128 16.6461 11.3255 16.8351 11.1902 16.9901C11.1154 17.0757 11.0144 17.2039 10.9409 17.2971L10.9408 17.2971C10.4848 17.851 10.0186 18.4205 9.7449 18.8091C9.46224 19.2104 9.24812 19.5927 9.12977 20.0259C8.95513 20.6652 8.95513 21.3348 9.12977 21.9741C9.29286 22.5711 9.62119 23.0849 9.94885 23.5137C10.1472 23.7733 10.3877 24.052 10.5996 24.2975L10.5996 24.2975C10.7155 24.4318 10.8805 24.6265 10.9677 24.7323C11.2087 25.0265 11.4467 25.3168 11.7637 25.4947C12.1127 25.6906 12.515 25.7755 12.9124 25.7434C13.2701 25.7144 13.7609 25.4904 14.1238 25.3243C14.48 25.1652 15.1515 24.8652 15.4073 24.1081C15.5003 23.8327 15.4996 23.5384 15.4989 23.2645V18.7355C15.4996 18.4616 15.5003 18.1672 15.4073 17.8919C15.1515 17.1348 14.48 16.8348 14.1238 16.6757C13.7609 16.5096 13.2701 16.2856 12.9124 16.2566Z" fill="#C543CE"/>
<path d="M25.749 25.4931V25.8018C25.749 26.8201 24.6256 28.0018 22.749 28.0018H20.749C20.1967 28.0018 19.749 28.4495 19.749 29.0018C19.749 29.554 20.1967 30.0018 20.749 30.0018H22.749C25.2907 30.0018 27.749 28.3181 27.749 25.8018V25.4883C27.7442 25.491 27.7394 25.4938 27.7346 25.4965C27.3855 25.6924 26.9832 25.7773 26.5859 25.7451C26.3413 25.7253 26.0346 25.6144 25.749 25.4931Z" fill="#C543CE"/>
<path d="M13.7775 16.5205C14.0639 14.0948 16.4979 12 19.7492 12C23.0006 12 25.4346 14.0949 25.7209 16.5207C26.0144 16.3948 26.3334 16.2771 26.586 16.2566C26.9815 16.2247 27.3819 16.3086 27.7298 16.5025C27.4358 12.7494 23.8386 10 19.7492 10C15.6597 10 12.0624 12.7496 11.7686 16.5028C12.1166 16.3086 12.5171 16.2246 12.9128 16.2566C13.1653 16.2771 13.4841 16.3947 13.7775 16.5205Z" fill="#C543CE"/>
</svg>
