<svg width="40" height="40" viewBox="0 0 40 40" fill="none" xmlns="http://www.w3.org/2000/svg">
<g opacity="0.2">
<circle cx="20" cy="20" r="20" fill="#F4C430"/>
</g>
<path opacity="0.4" fill-rule="evenodd" clip-rule="evenodd" d="M14 10.75C12.2051 10.75 10.75 12.2051 10.75 14V26C10.75 27.7949 12.2051 29.25 14 29.25H26C27.7949 29.25 29.25 27.7949 29.25 26V20C29.25 19.5858 29.5858 19.25 30 19.25C30.4142 19.25 30.75 19.5858 30.75 20V26C30.75 28.6234 28.6234 30.75 26 30.75H14C11.3766 30.75 9.25 28.6234 9.25 26V14C9.25 11.3766 11.3766 9.25 14 9.25H20C20.4142 9.25 20.75 9.58579 20.75 10C20.75 10.4142 20.4142 10.75 20 10.75H14Z" fill="#F4C430"/>
<path d="M17.1547 23.9893L20.1583 23.5602C20.5916 23.4983 20.9931 23.2975 21.3025 22.9881L27.9773 16.3134C27.9773 16.3134 26.547 16.3134 25.1167 14.8831C23.6864 13.4528 23.6864 12.0225 23.6864 12.0225L17.0116 18.6972C16.7022 19.0067 16.5014 19.4082 16.4395 19.8414L16.0104 22.845C15.9151 23.5125 16.4872 24.0846 17.1547 23.9893Z" fill="#F4C430"/>
<path opacity="0.4" d="M29.4077 12.0227L27.9774 10.5924C27.1875 9.80252 25.9068 9.80252 25.1168 10.5924L23.6865 12.0227C23.6865 12.0227 23.6865 13.453 25.1168 14.8833C26.5471 16.3136 27.9774 16.3136 27.9774 16.3136L29.4077 14.8833C30.1976 14.0934 30.1976 12.8127 29.4077 12.0227Z" fill="#F4C430"/>
</svg>
