<svg width="40" height="40" viewBox="0 0 40 40" fill="none" xmlns="http://www.w3.org/2000/svg">
<g opacity="0.2">
<circle cx="20" cy="20" r="20" fill="#00CCCC"/>
</g>
<path d="M22.2204 9.82273C20.7601 9.72566 19.2369 9.72586 17.7797 9.82273C13.213 10.1263 9.58972 13.8126 9.2918 18.4224C9.23607 19.2848 9.23607 20.1768 9.2918 21.0392C9.40272 22.7556 10.1515 24.304 10.9838 25.5604C11.2331 26.0419 11.1032 26.7641 10.6369 27.6478L10.6154 27.6885C10.4587 27.9852 10.3054 28.2757 10.2169 28.5234C10.1231 28.7858 10.0262 29.2025 10.2679 29.6145C10.49 29.9931 10.8448 30.1318 11.1315 30.1873C11.3696 30.2334 11.6616 30.2403 11.9354 30.2469L11.9812 30.248C13.4009 30.2825 14.4014 29.8726 15.1938 29.2883C15.3511 29.1723 15.4591 29.0929 15.5404 29.037C15.6587 29.0804 15.8203 29.1467 16.0584 29.2448C16.5998 29.4677 17.2147 29.6013 17.7797 29.6389C19.2369 29.7357 20.7601 29.7359 22.2204 29.6389C26.787 29.3353 30.4103 25.649 30.7082 21.0392C30.7639 20.1768 30.7639 19.2848 30.7082 18.4224C30.4103 13.8126 26.787 10.1263 22.2204 9.82273Z" fill="#00CCCC"/>
<path opacity="0.4" fill-rule="evenodd" clip-rule="evenodd" d="M20.0078 16.5C19.3306 16.5 19.0078 16.9566 19.0078 17.2582C19.0078 17.8105 18.5601 18.2582 18.0078 18.2582C17.4555 18.2582 17.0078 17.8105 17.0078 17.2582C17.0078 15.6177 18.4759 14.5 20.0078 14.5C21.5397 14.5 23.0078 15.6177 23.0078 17.2582C23.0078 17.8363 22.8143 18.3667 22.4979 18.799C22.3129 19.0517 22.0998 19.2889 21.9134 19.4925C21.8782 19.531 21.8439 19.5683 21.8106 19.6046C21.6562 19.7726 21.5209 19.9198 21.3956 20.0712C21.0744 20.4593 21.0078 20.6612 21.0078 20.7747V21.2143C21.0078 21.7666 20.5601 22.2143 20.0078 22.2143C19.4555 22.2143 19.0078 21.7666 19.0078 21.2143V20.7747C19.0078 19.9172 19.4839 19.2443 19.8549 18.796C20.0166 18.6007 20.1941 18.4076 20.3492 18.239C20.3798 18.2057 20.4095 18.1734 20.4381 18.1422C20.6234 17.9397 20.7701 17.7734 20.884 17.6178C20.9686 17.5021 21.0078 17.3803 21.0078 17.2582C21.0078 16.9566 20.685 16.5 20.0078 16.5ZM19.0078 24.5C19.0078 23.9477 19.4555 23.5 20.0078 23.5H20.0198C20.5721 23.5 21.0198 23.9477 21.0198 24.5C21.0198 25.0523 20.5721 25.5 20.0198 25.5H20.0078C19.4555 25.5 19.0078 25.0523 19.0078 24.5Z" fill="white"/>
</svg>
