<svg width="40" height="40" viewBox="0 0 40 40" fill="none" xmlns="http://www.w3.org/2000/svg">
<g opacity="0.2">
<circle cx="20" cy="20" r="20" fill="#EA698B"/>
</g>
<g clip-path="url(#clip0_126_23056)">
<path opacity="0.4" fill-rule="evenodd" clip-rule="evenodd" d="M29 20.75H30.5C30.914 20.75 31.25 20.414 31.25 20C31.25 19.586 30.914 19.25 30.5 19.25H29C28.586 19.25 28.25 19.586 28.25 20C28.25 20.414 28.586 20.75 29 20.75Z" fill="#EA698B"/>
<path opacity="0.4" fill-rule="evenodd" clip-rule="evenodd" d="M9.5 20.75H11C11.414 20.75 11.75 20.414 11.75 20C11.75 19.586 11.414 19.25 11 19.25H9.5C9.086 19.25 8.75 19.586 8.75 20C8.75 20.414 9.086 20.75 9.5 20.75Z" fill="#EA698B"/>
<path opacity="0.4" fill-rule="evenodd" clip-rule="evenodd" d="M20.75 11V9.5C20.75 9.086 20.414 8.75 20 8.75C19.586 8.75 19.25 9.086 19.25 9.5V11C19.25 11.414 19.586 11.75 20 11.75C20.414 11.75 20.75 11.414 20.75 11Z" fill="#EA698B"/>
<path opacity="0.4" fill-rule="evenodd" clip-rule="evenodd" d="M26.8941 14.1663L27.9554 13.1058C28.2479 12.8126 28.2479 12.3378 27.9554 12.0446C27.6621 11.7521 27.1874 11.7521 26.8941 12.0446L25.8336 13.1058C25.5411 13.3983 25.5411 13.8738 25.8336 14.1663C26.1261 14.4588 26.6016 14.4588 26.8941 14.1663Z" fill="#EA698B"/>
<path opacity="0.4" fill-rule="evenodd" clip-rule="evenodd" d="M13.1058 27.9551L14.1663 26.8938C14.4588 26.6013 14.4588 26.1258 14.1663 25.8333C13.8738 25.5408 13.3983 25.5408 13.1058 25.8333L12.0446 26.8938C11.7521 27.1871 11.7521 27.6618 12.0446 27.9551C12.3378 28.2476 12.8126 28.2476 13.1058 27.9551ZM14.1663 13.1058L13.1058 12.0446C12.8126 11.7521 12.3378 11.7521 12.0446 12.0446C11.7521 12.3378 11.7521 12.8126 12.0446 13.1058L13.1058 14.1663C13.3983 14.4588 13.8738 14.4588 14.1663 14.1663C14.4588 13.8738 14.4588 13.3983 14.1663 13.1058Z" fill="#EA698B"/>
<path opacity="0.4" fill-rule="evenodd" clip-rule="evenodd" d="M27.9554 26.8941L26.8941 25.8336C26.6016 25.5411 26.1261 25.5411 25.8336 25.8336C25.5411 26.1261 25.5411 26.6016 25.8336 26.8941L26.8941 27.9554C27.1874 28.2479 27.6621 28.2479 27.9554 27.9554C28.2479 27.6621 28.2479 27.1874 27.9554 26.8941Z" fill="#EA698B"/>
<path fill-rule="evenodd" clip-rule="evenodd" d="M17 26.483V27.5C17 27.914 17.336 28.25 17.75 28.25H22.25C22.664 28.25 23 27.914 23 27.5C23 27.5 23 26.9908 23.0105 26.4988C23.0112 26.4935 23.0112 26.4882 23.0112 26.4823C23.0112 26.2175 23.153 25.973 23.3825 25.841C23.384 25.8403 23.3855 25.8395 23.387 25.8387C25.397 24.6695 26.75 22.4915 26.75 20C26.75 16.2747 23.7253 13.25 20 13.25C16.2747 13.25 13.25 16.2747 13.25 20C13.25 22.493 14.6045 24.6725 16.622 25.8312L16.6227 25.832C16.856 25.9655 17 26.2137 17 26.483Z" fill="#EA698B"/>
<path fill-rule="evenodd" clip-rule="evenodd" d="M20 13.25C16.2747 13.25 13.25 16.2747 13.25 20C13.25 22.493 14.6045 24.6725 16.622 25.8312L16.6227 25.832C16.856 25.9655 17 26.2137 17 26.483V27.5C17 27.914 17.336 28.25 17.75 28.25H20V13.25Z" fill="#EA698B"/>
<g opacity="0.4">
<path fill-rule="evenodd" clip-rule="evenodd" d="M19.25 19.25C19.25 18.836 19.586 18.5 20 18.5C20.414 18.5 20.75 18.836 20.75 19.25C20.75 19.664 20.414 20 20 20C19.586 20 19.25 20.336 19.25 20.75V21.5C19.25 21.914 19.586 22.25 20 22.25C20.414 22.25 20.75 21.914 20.75 21.5V21.3718C21.6237 21.0628 22.25 20.2287 22.25 19.25C22.25 18.008 21.242 17 20 17C18.758 17 17.75 18.008 17.75 19.25C17.75 19.664 18.086 20 18.5 20C18.914 20 19.25 19.664 19.25 19.25Z" fill="white"/>
<path d="M20 24.5C20.4142 24.5 20.75 24.1642 20.75 23.75C20.75 23.3358 20.4142 23 20 23C19.5858 23 19.25 23.3358 19.25 23.75C19.25 24.1642 19.5858 24.5 20 24.5Z" fill="white"/>
</g>
<path fill-rule="evenodd" clip-rule="evenodd" d="M20 31.25C20.7957 31.25 21.5585 30.9342 22.121 30.371C22.6842 29.8085 22.997 29.0457 23 28.25C23.006 26.75 23 26.75 23 26.75H17V28.25C17 29.0457 17.3157 29.8085 17.879 30.371C18.4415 30.9342 19.2043 31.25 20 31.25Z" fill="#EA698B"/>
</g>
<defs>
<clipPath id="clip0_126_23056">
<rect width="24" height="24" fill="white" transform="translate(8 8)"/>
</clipPath>
</defs>
</svg>
