<svg width="50" height="50" viewBox="0 0 50 50" fill="none" xmlns="http://www.w3.org/2000/svg">
<circle opacity="0.2" cx="25" cy="25" r="25" fill="#6050DC"/>
<path fill-rule="evenodd" clip-rule="evenodd" d="M20 35C19.4477 35 19 34.5523 19 34L19 31C19 30.4477 19.4477 30 20 30C20.5523 30 21 30.4477 21 31L21 34C21 34.5523 20.5523 35 20 35Z" fill="#6050DC"/>
<path opacity="0.4" fill-rule="evenodd" clip-rule="evenodd" d="M30 35C29.4477 35 29 34.5523 29 34L29 28C29 27.4477 29.4477 27 30 27C30.5523 27 31 27.4477 31 28L31 34C31 34.5523 30.5523 35 30 35Z" fill="#6050DC"/>
<path fill-rule="evenodd" clip-rule="evenodd" d="M30 20C29.4477 20 29 19.5523 29 19L29 16C29 15.4477 29.4477 15 30 15C30.5523 15 31 15.4477 31 16L31 19C31 19.5523 30.5523 20 30 20Z" fill="#6050DC"/>
<path opacity="0.4" fill-rule="evenodd" clip-rule="evenodd" d="M20 23C19.4477 23 19 22.5523 19 22L19 16C19 15.4477 19.4477 15 20 15C20.5523 15 21 15.4477 21 16L21 22C21 22.5523 20.5523 23 20 23Z" fill="#6050DC"/>
<path fill-rule="evenodd" clip-rule="evenodd" d="M19.9747 24.25H20.0253C20.4697 24.25 20.8408 24.25 21.1454 24.2708C21.4625 24.2924 21.762 24.339 22.0524 24.4593C22.7262 24.7384 23.2616 25.2738 23.5407 25.9476C23.661 26.238 23.7076 26.5375 23.7292 26.8546C23.75 27.1592 23.75 27.5303 23.75 27.9747V28.0253C23.75 28.4697 23.75 28.8408 23.7292 29.1454C23.7076 29.4625 23.661 29.762 23.5407 30.0524C23.2616 30.7262 22.7262 31.2616 22.0524 31.5407C21.762 31.661 21.4625 31.7076 21.1454 31.7292C20.8408 31.75 20.4697 31.75 20.0253 31.75H19.9747C19.5303 31.75 19.1592 31.75 18.8546 31.7292C18.5375 31.7076 18.238 31.661 17.9476 31.5407C17.2738 31.2616 16.7384 30.7262 16.4593 30.0524C16.339 29.762 16.2924 29.4625 16.2708 29.1454C16.25 28.8408 16.25 28.4697 16.25 28.0253V27.9747C16.25 27.5303 16.25 27.1592 16.2708 26.8546C16.2924 26.5375 16.339 26.238 16.4593 25.9476C16.7384 25.2738 17.2738 24.7384 17.9476 24.4593C18.238 24.339 18.5375 24.2924 18.8546 24.2708C19.1592 24.25 19.5303 24.25 19.9747 24.25Z" fill="#6050DC"/>
<path fill-rule="evenodd" clip-rule="evenodd" d="M29.9747 18.25H30.0253C30.4697 18.25 30.8408 18.25 31.1454 18.2708C31.4625 18.2924 31.762 18.339 32.0524 18.4593C32.7262 18.7384 33.2616 19.2738 33.5407 19.9476C33.661 20.238 33.7076 20.5375 33.7292 20.8546C33.75 21.1592 33.75 21.5303 33.75 21.9747V22.0253C33.75 22.4697 33.75 22.8408 33.7292 23.1454C33.7076 23.4625 33.661 23.762 33.5407 24.0524C33.2616 24.7262 32.7262 25.2616 32.0524 25.5407C31.762 25.661 31.4625 25.7076 31.1454 25.7292C30.8408 25.75 30.4697 25.75 30.0253 25.75H29.9747C29.5303 25.75 29.1592 25.75 28.8546 25.7292C28.5375 25.7076 28.238 25.661 27.9476 25.5407C27.2738 25.2616 26.7384 24.7262 26.4593 24.0524C26.339 23.762 26.2924 23.4625 26.2708 23.1454C26.25 22.8408 26.25 22.4697 26.25 22.0253V21.9747C26.25 21.5303 26.25 21.1592 26.2708 20.8546C26.2924 20.5375 26.339 20.238 26.4593 19.9476C26.7384 19.2738 27.2738 18.7384 27.9476 18.4593C28.238 18.339 28.5375 18.2924 28.8546 18.2708C29.1592 18.25 29.5303 18.25 29.9747 18.25Z" fill="#6050DC"/>
</svg>
