<svg width="40" height="40" viewBox="0 0 40 40" fill="none" xmlns="http://www.w3.org/2000/svg">
<g opacity="0.2">
<circle cx="20" cy="20" r="20" fill="#008080"/>
</g>
<path opacity="0.4" fill-rule="evenodd" clip-rule="evenodd" d="M17.4957 9.894C18.5485 9.50823 19.2533 9.25 20.0001 9.25C20.747 9.25 21.4517 9.50823 22.5045 9.894C22.5452 9.90888 22.5863 9.92395 22.628 9.93921L25.5759 11.0183C25.63 11.0381 25.6834 11.0576 25.7361 11.0768C27.0165 11.5449 27.8739 11.8583 28.495 12.4481C28.8776 12.8115 29.1855 13.2447 29.4008 13.7243C29.7512 14.5051 29.7508 15.4073 29.7502 16.7381C29.7501 16.7942 29.7501 16.851 29.7501 16.9086L29.7501 17.8077C29.7502 20.0905 29.7503 21.385 29.4274 22.5815C29.029 24.0583 28.274 25.4186 27.2273 26.5489C26.3798 27.4642 25.2728 28.1695 23.3115 29.4191L23.2055 29.4867C23.1714 29.5084 23.1379 29.5298 23.1048 29.5509C22.2789 30.0775 21.7283 30.4285 21.1284 30.5958C20.3908 30.8014 19.6094 30.8014 18.8718 30.5958C18.2719 30.4285 17.7213 30.0775 16.8954 29.5509C16.8623 29.5298 16.8288 29.5084 16.7947 29.4867L16.6887 29.4191C14.7274 28.1695 13.6204 27.4642 12.7729 26.5489C11.7262 25.4186 10.9712 24.0583 10.5728 22.5815C10.2499 21.385 10.25 20.0905 10.2501 17.8077C10.2501 17.7657 10.2501 17.7233 10.2501 17.6807V16.9086C10.2501 16.851 10.2501 16.7942 10.25 16.7381C10.2494 15.4073 10.249 14.5051 10.5994 13.7243C10.8147 13.2447 11.1226 12.8115 11.5052 12.4481C12.1263 11.8583 12.9837 11.5449 14.2641 11.0768C14.3168 11.0576 14.3702 11.0381 14.4243 11.0183L17.3722 9.93921C17.4139 9.92395 17.455 9.90888 17.4957 9.894Z" fill="#008080"/>
<path d="M24.9426 16.6664C25.127 17.187 24.8544 17.7585 24.3338 17.9429C23.8002 18.1319 23.1837 18.5388 22.5307 19.1115C21.888 19.6751 21.2628 20.3521 20.7091 21.0159C20.1572 21.6774 19.6885 22.3111 19.3574 22.7801C19.1922 23.0141 18.8441 23.5365 18.8441 23.5365C18.6508 23.8406 18.3087 24.0174 17.9489 23.999C17.5889 23.9805 17.2668 23.7698 17.1056 23.4475C16.6649 22.5661 16.1104 22.0149 15.9064 21.9959C15.398 21.9487 15 21.521 15 21.0003C15 20.448 15.4477 20.0003 16 20.0003C16.5523 20.0003 16.9053 20.2353 17.1797 20.4182C17.454 20.6011 17.7416 20.8538 18.0304 21.1997C18.3456 20.7689 18.734 20.2613 19.1733 19.7347C19.7666 19.0235 20.465 18.2629 21.212 17.6078C21.9486 16.9618 22.788 16.3686 23.6662 16.0576C24.1868 15.8733 24.7582 16.1458 24.9426 16.6664Z" fill="#008080"/>
</svg>
