<svg width="50" height="50" viewBox="0 0 50 50" fill="none" xmlns="http://www.w3.org/2000/svg">
<g opacity="0.2">
<rect width="50" height="50" rx="25" fill="#FBB159"/>
</g>
<path fill-rule="evenodd" clip-rule="evenodd" d="M22 18C22 17.4477 22.4477 17 23 17L33 17C33.5523 17 34 17.4477 34 18C34 18.5523 33.5523 19 33 19L23 19C22.4477 19 22 18.5523 22 18Z" fill="#FF8C00"/>
<path opacity="0.4" fill-rule="evenodd" clip-rule="evenodd" d="M16 25C16 24.4477 16.4477 24 17 24L33 24C33.5523 24 34 24.4477 34 25C34 25.5523 33.5523 26 33 26L17 26C16.4477 26 16 25.5523 16 25Z" fill="#FF8C00"/>
<path fill-rule="evenodd" clip-rule="evenodd" d="M16 32C16 31.4477 16.4477 31 17 31L27 31C27.5523 31 28 31.4477 28 32C28 32.5523 27.5523 33 27 33L17 33C16.4477 33 16 32.5523 16 32Z" fill="#FF8C00"/>
</svg>
