<svg width="40" height="40" viewBox="0 0 40 40" fill="none" xmlns="http://www.w3.org/2000/svg">
<circle opacity="0.2" cx="20" cy="20" r="20" fill="#FA2A2A"/>
<path d="M20.6851 13.0003L20 13.7028L19.315 13.0003C17.184 10.815 13.7291 10.815 11.5982 13.0003C9.5245 15.1269 9.46078 18.5541 11.4539 20.7603L17.1803 27.0985C18.7015 28.7823 21.2984 28.7823 22.8197 27.0985L28.5461 20.7602C30.5392 18.5541 30.4755 15.1269 28.4018 13.0003C26.2709 10.815 22.816 10.815 20.6851 13.0003Z" fill="#FA2A2A"/>
<path opacity="0.4" fill-rule="evenodd" clip-rule="evenodd" d="M24.25 14.5C24.25 14.0858 24.5858 13.75 25 13.75C26.5188 13.75 27.75 14.9812 27.75 16.5C27.75 16.9142 27.4142 17.25 27 17.25C26.5858 17.25 26.25 16.9142 26.25 16.5C26.25 15.8096 25.6904 15.25 25 15.25C24.5858 15.25 24.25 14.9142 24.25 14.5Z" fill="white"/>
</svg>
