<svg width="40" height="40" viewBox="0 0 40 40" fill="none" xmlns="http://www.w3.org/2000/svg">
<circle opacity="0.2" cx="20" cy="20" r="20" fill="#77BFA3"/>
<path opacity="0.4" d="M17 29C20.866 29 24 25.866 24 22C24 18.134 20.866 15 17 15C13.134 15 10 18.134 10 22C10 25.866 13.134 29 17 29Z" fill="#77BFA3"/>
<path d="M29 17H25C24.7348 17 24.4804 16.8946 24.2929 16.7071C24.1054 16.5196 24 16.2652 24 16C24 15.7348 24.1054 15.4804 24.2929 15.2929C24.4804 15.1054 24.7348 15 25 15H29C29.2652 15 29.5196 15.1054 29.7071 15.2929C29.8946 15.4804 30 15.7348 30 16C30 16.2652 29.8946 16.5196 29.7071 16.7071C29.5196 16.8946 29.2652 17 29 17ZM29 13H11C10.7348 13 10.4804 12.8946 10.2929 12.7071C10.1054 12.5196 10 12.2652 10 12C10 11.7348 10.1054 11.4804 10.2929 11.2929C10.4804 11.1054 10.7348 11 11 11H29C29.2652 11 29.5196 11.1054 29.7071 11.2929C29.8946 11.4804 30 11.7348 30 12C30 12.2652 29.8946 12.5196 29.7071 12.7071C29.5196 12.8946 29.2652 13 29 13ZM29 21H27C26.7348 21 26.4804 20.8946 26.2929 20.7071C26.1054 20.5196 26 20.2652 26 20C26 19.7348 26.1054 19.4804 26.2929 19.2929C26.4804 19.1054 26.7348 19 27 19H29C29.2652 19 29.5196 19.1054 29.7071 19.2929C29.8946 19.4804 30 19.7348 30 20C30 20.2652 29.8946 20.5196 29.7071 20.7071C29.5196 20.8946 29.2652 21 29 21ZM29 25H27C26.7348 25 26.4804 24.8946 26.2929 24.7071C26.1054 24.5196 26 24.2652 26 24C26 23.7348 26.1054 23.4804 26.2929 23.2929C26.4804 23.1054 26.7348 23 27 23H29C29.2652 23 29.5196 23.1054 29.7071 23.2929C29.8946 23.4804 30 23.7348 30 24C30 24.2652 29.8946 24.5196 29.7071 24.7071C29.5196 24.8946 29.2652 25 29 25ZM29 29H25C24.7348 29 24.4804 28.8946 24.2929 28.7071C24.1054 28.5196 24 28.2652 24 28C24 27.7348 24.1054 27.4804 24.2929 27.2929C24.4804 27.1054 24.7348 27 25 27H29C29.2652 27 29.5196 27.1054 29.7071 27.2929C29.8946 27.4804 30 27.7348 30 28C30 28.2652 29.8946 28.5196 29.7071 28.7071C29.5196 28.8946 29.2652 29 29 29Z" fill="#77BFA3"/>
<path d="M18 18C18 17.7348 17.8946 17.4804 17.7071 17.2929C17.5195 17.1054 17.2652 17 17 17C16.7348 17 16.4804 17.1054 16.2929 17.2929C16.1053 17.4804 16 17.7348 16 18V21.59L14.29 23.29C14.1853 23.3796 14.1003 23.49 14.0402 23.614C13.9802 23.7381 13.9465 23.8732 13.9412 24.0109C13.9359 24.1487 13.9591 24.286 14.0093 24.4143C14.0596 24.5426 14.1359 24.6592 14.2333 24.7567C14.3308 24.8541 14.4473 24.9304 14.5757 24.9806C14.704 25.0309 14.8413 25.0541 14.979 25.0488C15.1167 25.0435 15.2519 25.0097 15.3759 24.9497C15.5 24.8897 15.6103 24.8047 15.7 24.7L17.7 22.7C17.8884 22.5154 17.9962 22.2638 18 22V18Z" fill="#77BFA3"/>
</svg>
