<svg width="40" height="40" viewBox="0 0 40 40" fill="none" xmlns="http://www.w3.org/2000/svg">
<g opacity="0.2">
<circle cx="20" cy="20" r="20" fill="#643D40"/>
</g>
<path opacity="0.4" d="M24.4465 14.4931C24.5931 14.3465 24.7939 14.2671 25.0012 14.2738C26.7075 14.3292 28.0171 14.5124 29.0125 15.3293C29.2531 15.5267 29.4736 15.7472 29.671 15.9878C30.2528 16.6967 30.5086 17.5454 30.6305 18.5764C30.7492 19.5806 30.7492 20.8499 30.7492 22.4521V22.4522V22.55V22.5501C30.7492 24.1524 30.7492 25.4217 30.6305 26.4259C30.5086 27.4568 30.2528 28.3055 29.671 29.0145C29.4736 29.255 29.2531 29.4755 29.0125 29.6729C28.3036 30.2547 27.4549 30.5106 26.4239 30.6324C25.4197 30.7511 24.1504 30.7511 22.5482 30.7511H22.5481H22.4503H22.4502C20.8479 30.7511 19.5786 30.7511 18.5744 30.6324C17.5435 30.5106 16.6948 30.2547 15.9858 29.6729C15.7453 29.4755 15.5248 29.255 15.3274 29.0145C14.5078 28.0159 14.3263 26.7235 14.2719 25.0025C14.2653 24.7955 14.3447 24.595 14.4912 24.4485L24.4465 14.4931Z" fill="#643D40"/>
<path d="M17.5489 9.25H17.4511C15.8488 9.24999 14.5795 9.24998 13.5753 9.36868C12.5443 9.49055 11.6956 9.74638 10.9866 10.3282C10.7461 10.5256 10.5256 10.7461 10.3282 10.9866C9.74638 11.6956 9.49055 12.5443 9.36868 13.5753C9.24998 14.5795 9.24999 15.8488 9.25 17.4511V17.5489C9.24999 19.1512 9.24998 20.4205 9.36868 21.4248C9.49055 22.4557 9.74638 23.3044 10.3282 24.0134C10.5256 24.2539 10.7461 24.4744 10.9866 24.6718C11.846 25.3771 12.923 25.6098 14.3034 25.6957C14.2895 25.4724 14.2794 25.2411 14.2719 25.0014C14.2653 24.7944 14.3447 24.5939 14.4912 24.4474L14.7228 24.2157C13.2217 24.1475 12.472 23.9503 11.9382 23.5123C11.7737 23.3772 11.6228 23.2263 11.4877 23.0618C11.1616 22.6644 10.9634 22.138 10.8583 21.2487C10.7512 20.3428 10.75 19.1621 10.75 17.5C10.75 15.8379 10.7512 14.6572 10.8583 13.7513C10.9634 12.862 11.1616 12.3356 11.4877 11.9382C11.6228 11.7737 11.7737 11.6228 11.9382 11.4877C12.3356 11.1616 12.862 10.9634 13.7513 10.8583C14.6572 10.7512 15.8379 10.75 17.5 10.75C19.1621 10.75 20.3428 10.7512 21.2487 10.8583C22.138 10.9634 22.6644 11.1616 23.0618 11.4877C23.2263 11.6228 23.3772 11.7737 23.5123 11.9382C23.9503 12.472 24.1475 13.2217 24.2157 14.7228L24.4465 14.492C24.5931 14.3454 24.7939 14.266 25.0012 14.2727C25.2404 14.2805 25.4719 14.2908 25.6958 14.305C25.61 12.9238 25.3774 11.8463 24.6718 10.9866C24.4744 10.7461 24.2539 10.5256 24.0134 10.3282C23.3044 9.74638 22.4557 9.49055 21.4248 9.36868C20.4205 9.24998 19.1512 9.24999 17.5489 9.25Z" fill="#643D40"/>
<path d="M26.7468 21H25.4339C25.2598 21 25.0928 21.0692 24.9697 21.1923C24.8466 21.3154 24.7774 21.4824 24.7774 21.6565C24.7774 21.8306 24.8466 21.9976 24.9697 22.1207C25.0928 22.2438 25.2598 22.3129 25.4339 22.3129V23.6259H24.6566C24.7344 23.4156 24.7752 23.1936 24.7774 22.9694C24.7774 22.5359 24.6343 22.1145 24.3704 21.7706C24.1065 21.4266 23.7364 21.1794 23.3177 21.0672C22.899 20.955 22.4549 20.9841 22.0544 21.15C21.6538 21.3159 21.3192 21.6093 21.1025 21.9847C21.055 22.0594 21.0231 22.143 21.0087 22.2303C20.9943 22.3177 20.9978 22.4071 21.0188 22.4931C21.0399 22.5791 21.0782 22.6599 21.1313 22.7307C21.1844 22.8016 21.2513 22.8609 21.3279 22.9052C21.4046 22.9495 21.4894 22.9779 21.5773 22.9886C21.6652 22.9992 21.7543 22.992 21.8394 22.9674C21.9244 22.9427 22.0036 22.9011 22.0721 22.845C22.1406 22.789 22.1971 22.7196 22.2382 22.6412C22.2957 22.5414 22.3786 22.4586 22.4783 22.401C22.578 22.3434 22.6912 22.313 22.8064 22.3129C22.9215 22.3129 23.0347 22.3431 23.1345 22.4007C23.2343 22.4582 23.3172 22.5409 23.3749 22.6406C23.4326 22.7403 23.463 22.8534 23.4631 22.9686C23.4633 23.0838 23.4331 23.197 23.3757 23.2968C23.3182 23.3966 23.2355 23.4796 23.1359 23.5374C23.0362 23.5951 22.9232 23.6257 22.808 23.6259C22.6339 23.6259 22.4669 23.695 22.3438 23.8182C22.2207 23.9413 22.1515 24.1082 22.1515 24.2824C22.1515 24.4565 22.2207 24.6234 22.3438 24.7465C22.4669 24.8697 22.6339 24.9388 22.808 24.9388C22.9232 24.9389 23.0363 24.9694 23.1361 25.0271C23.2358 25.0847 23.3186 25.1677 23.3761 25.2675C23.4336 25.3673 23.4639 25.4805 23.4638 25.5957C23.4637 25.7109 23.4333 25.8241 23.3757 25.9238C23.318 26.0236 23.2352 26.1064 23.1354 26.1639C23.0356 26.2215 22.9224 26.2518 22.8072 26.2518C22.692 26.2517 22.5788 26.2214 22.479 26.1638C22.3793 26.1062 22.2964 26.0233 22.2388 25.9235C22.1978 25.8451 22.1413 25.7757 22.0728 25.7197C22.0042 25.6636 21.9251 25.622 21.84 25.5973C21.755 25.5727 21.6659 25.5655 21.578 25.5761C21.4901 25.5868 21.4053 25.6152 21.3286 25.6595C21.2519 25.7038 21.185 25.7631 21.1319 25.834C21.0788 25.9048 21.0406 25.9856 21.0195 26.0716C20.9984 26.1576 20.995 26.247 21.0094 26.3344C21.0237 26.4217 21.0556 26.5053 21.1031 26.58C21.32 26.9551 21.6546 27.2482 22.055 27.4139C22.4554 27.5795 22.8992 27.6085 23.3178 27.4964C23.7363 27.3842 24.1062 27.1371 24.3701 26.7934C24.634 26.4497 24.7771 26.0286 24.7774 25.5953C24.7752 25.3711 24.7344 25.1491 24.6566 24.9388H25.4339V26.9082C25.4339 27.0823 25.503 27.2493 25.6261 27.3724C25.7492 27.4955 25.9162 27.5647 26.0903 27.5647C26.2644 27.5647 26.4314 27.4955 26.5545 27.3724C26.6776 27.2493 26.7468 27.0823 26.7468 26.9082V22.3129C26.9209 22.3129 27.0879 22.2438 27.211 22.1207C27.3341 21.9976 27.4033 21.8306 27.4033 21.6565C27.4033 21.4824 27.3341 21.3154 27.211 21.1923C27.0879 21.0692 26.9209 21 26.7468 21Z" fill="#643D40"/>
<path opacity="0.4" d="M14 15.1875L14 19C14 19.1658 14.0658 19.3247 14.1831 19.4419C14.3003 19.5592 14.4592 19.625 14.625 19.625C14.7908 19.625 14.9497 19.5592 15.0669 19.4419C15.1842 19.3247 15.25 19.1658 15.25 19V17.75H17.125V19C17.125 19.1658 17.1908 19.3247 17.3081 19.4419C17.4253 19.5592 17.5842 19.625 17.75 19.625C17.9158 19.625 18.0747 19.5592 18.1919 19.4419C18.3092 19.3247 18.375 19.1658 18.375 19V15.1875C18.375 14.6073 18.1445 14.0509 17.7343 13.6407C17.3241 13.2305 16.7677 13 16.1875 13C15.6073 13 15.0509 13.2305 14.6407 13.6407C14.2305 14.0509 14 14.6073 14 15.1875ZM16.1875 14.25C16.4361 14.2503 16.6744 14.3491 16.8501 14.5249C17.0259 14.7006 17.1247 14.9389 17.125 15.1875V16.5H15.25V15.1875C15.2503 14.9389 15.3491 14.7006 15.5249 14.5249C15.7006 14.3491 15.9389 14.2503 16.1875 14.25Z" fill="#643D40"/>
</svg>
