<svg width="40" height="40" viewBox="0 0 40 40" fill="none" xmlns="http://www.w3.org/2000/svg">
<g opacity="0.2">
<circle cx="20" cy="20" r="20" fill="#8838D1"/>
</g>
<path d="M15.5252 16.3499C16.9536 16.2842 18.4042 16.25 20 16.25C21.5958 16.25 23.0464 16.2842 24.4748 16.3499C26.5328 16.4445 28.2039 18.0382 28.4755 20.0552C28.6236 21.1556 28.75 22.3118 28.75 23.5C28.75 24.6882 28.6236 25.8444 28.4755 26.9448C28.2039 28.9618 26.5328 30.5555 24.4748 30.6501C23.0464 30.7158 21.5958 30.75 20 30.75C18.4042 30.75 16.9536 30.7158 15.5252 30.6501C13.4672 30.5555 11.7961 28.9618 11.5245 26.9448C11.3764 25.8444 11.25 24.6882 11.25 23.5C11.25 22.3118 11.3764 21.1556 11.5245 20.0552C11.7961 18.0382 13.4672 16.4445 15.5252 16.3499Z" fill="#8838D1"/>
<path opacity="0.4" fill-rule="evenodd" clip-rule="evenodd" d="M18.5 23.5C18.5 22.6716 19.1686 22 19.9933 22H20.0067C20.8314 22 21.5 22.6716 21.5 23.5C21.5 24.3284 20.8314 25 20.0067 25H19.9933C19.1686 25 18.5 24.3284 18.5 23.5Z" fill="white"/>
<path opacity="0.4" d="M16.5 14.75C16.5 12.817 18.067 11.25 20 11.25C21.933 11.25 23.5 12.817 23.5 14.75V16.3102C23.827 16.3218 24.1515 16.335 24.4748 16.3499C24.8298 16.3662 25.1732 16.4271 25.5 16.5271V14.75C25.5 11.7124 23.0376 9.25 20 9.25C16.9624 9.25 14.5 11.7124 14.5 14.75V16.5271C14.8268 16.4271 15.1702 16.3662 15.5252 16.3499C15.8485 16.335 16.173 16.3218 16.5 16.3102V14.75Z" fill="#8838D1"/>
</svg>
