<svg width="40" height="40" viewBox="0 0 40 40" fill="none" xmlns="http://www.w3.org/2000/svg">
<g opacity="0.1">
<circle cx="20" cy="20" r="20" fill="#477EE8"/>
</g>
<path d="M17.08 10.7868C19.033 10.7377 20.967 10.7377 22.92 10.7868L22.9782 10.7883C24.503 10.8266 25.73 10.8574 26.7133 11.0286C27.7428 11.2079 28.5795 11.5518 29.2864 12.2613C29.9903 12.9679 30.3324 13.7926 30.5082 14.8054C30.6757 15.7698 30.7012 16.9668 30.7328 18.4497L30.7341 18.5084C30.7553 19.5047 30.7553 20.4953 30.7341 21.4916L30.7328 21.5503C30.7012 23.0332 30.6757 24.2302 30.5082 25.1946C30.3324 26.2074 29.9903 27.0321 29.2864 27.7387C28.5795 28.4482 27.7428 28.7921 26.7133 28.9714C25.73 29.1426 24.503 29.1735 22.9782 29.2117L22.92 29.2132C20.967 29.2623 19.033 29.2623 17.08 29.2132L17.0218 29.2117C15.497 29.1735 14.27 29.1426 13.2867 28.9714C12.2572 28.7921 11.4205 28.4482 10.7136 27.7387C10.0097 27.0321 9.66764 26.2074 9.49176 25.1946C9.32429 24.2302 9.29879 23.0332 9.26719 21.5504L9.26594 21.4916C9.24469 20.4953 9.24469 19.5047 9.26593 18.5084L9.26719 18.4496C9.29878 16.9668 9.32429 15.7698 9.49176 14.8054C9.66764 13.7926 10.0097 12.9679 10.7136 12.2613C11.4205 11.5518 12.2572 11.2079 13.2867 11.0286C14.27 10.8574 15.497 10.8265 17.0218 10.7883L17.08 10.7868Z" fill="#477EE8"/>
<path opacity="0.4" d="M14.1394 15.9912C14.4204 15.5158 15.0337 15.3583 15.5091 15.6394L18.4511 17.3788C19.2914 17.8756 19.6898 18.0002 20.0002 18.0002C20.3105 18.0002 20.7089 17.8756 21.5492 17.3788L24.4912 15.6394C24.9666 15.3583 25.5799 15.5158 25.861 15.9912C26.142 16.4666 25.9845 17.0799 25.5091 17.361L22.5671 19.1004C21.6916 19.618 20.8898 20.0002 20.0002 20.0002C19.1105 20.0002 18.3088 19.618 17.4332 19.1004L14.4912 17.361C14.0158 17.0799 13.8583 16.4666 14.1394 15.9912Z" fill="white"/>
</svg>
