<svg width="40" height="40" viewBox="0 0 40 40" fill="none" xmlns="http://www.w3.org/2000/svg">
<circle opacity="0.2" cx="20" cy="20" r="20" fill="#FD95FD"/>
<g clip-path="url(#clip0_126_22902)">
<path d="M31.192 21.86C31.571 21.326 32 20.72 32 20C32 19.28 31.571 18.674 31.192 18.14C30.944 17.789 30.709 17.457 30.628 17.153C30.54 16.826 30.578 16.408 30.617 15.965C30.678 15.293 30.74 14.598 30.393 13.999C30.04 13.391 29.373 13.083 28.785 12.812C28.387 12.628 28.011 12.455 27.778 12.223C27.546 11.991 27.372 11.614 27.188 11.215C26.917 10.627 26.609 9.959 26.001 9.608C25.402 9.262 24.709 9.324 24.034 9.383C23.592 9.423 23.173 9.46 22.846 9.373C22.541 9.291 22.21 9.057 21.859 8.808C21.326 8.429 20.72 8 20 8C19.28 8 18.674 8.429 18.14 8.808C17.788 9.056 17.457 9.291 17.152 9.373C16.825 9.46 16.407 9.422 15.965 9.382C15.294 9.323 14.598 9.26 13.999 9.606C13.391 9.958 13.083 10.625 12.812 11.214C12.628 11.613 12.454 11.99 12.222 12.222C11.99 12.454 11.614 12.628 11.214 12.812C10.626 13.083 9.959 13.39 9.606 13.999C9.26 14.597 9.322 15.292 9.383 15.964C9.422 16.407 9.46 16.826 9.372 17.152C9.291 17.457 9.056 17.789 8.808 18.14C8.429 18.674 8 19.28 8 20C8 20.72 8.429 21.326 8.808 21.86C9.056 22.211 9.291 22.543 9.372 22.847C9.46 23.174 9.422 23.592 9.383 24.035C9.322 24.707 9.26 25.402 9.607 26.001C9.96 26.609 10.627 26.917 11.215 27.188C11.613 27.372 11.989 27.545 12.222 27.777C12.454 28.009 12.628 28.386 12.812 28.785C13.083 29.373 13.391 30.041 13.999 30.392C14.598 30.738 15.292 30.676 15.966 30.617C16.408 30.577 16.827 30.54 17.154 30.627C17.459 30.709 17.79 30.943 18.141 31.192C18.674 31.571 19.28 32 20 32C20.72 32 21.326 31.571 21.86 31.192C22.212 30.943 22.543 30.709 22.847 30.627C23.174 30.54 23.592 30.578 24.035 30.617C24.707 30.678 25.403 30.74 26.001 30.393C26.609 30.041 26.917 29.374 27.189 28.786C27.373 28.387 27.546 28.01 27.779 27.778C28.012 27.546 28.387 27.372 28.787 27.188C29.375 26.917 30.042 26.609 30.394 26.001C30.741 25.402 30.678 24.707 30.618 24.035C30.579 23.592 30.541 23.174 30.629 22.847C30.709 22.543 30.944 22.211 31.192 21.86Z" fill="#FD95FD"/>
<path opacity="0.4" d="M21.0612 21.061L20.0002 22.122L19.2932 21.415L20.0002 20.707C20.0912 20.6127 20.1416 20.4864 20.1405 20.3553C20.1394 20.2242 20.0868 20.0988 19.9941 20.0061C19.9014 19.9134 19.776 19.8608 19.6449 19.8596C19.5138 19.8585 19.3875 19.9089 19.2932 20L18.5862 20.707L17.8792 20L18.9402 18.939C19.0312 18.8447 19.0816 18.7184 19.0805 18.5873C19.0794 18.4562 19.0268 18.3308 18.9341 18.2381C18.8414 18.1454 18.716 18.0928 18.5849 18.0916C18.4538 18.0905 18.3275 18.1409 18.2332 18.232L16.8192 19.646C16.7254 19.7397 16.6728 19.8669 16.6728 19.9995C16.6728 20.132 16.7254 20.2592 16.8192 20.353L19.6472 23.182C19.6936 23.2285 19.7488 23.2655 19.8095 23.2907C19.8703 23.3159 19.9354 23.3289 20.0012 23.3289C20.0669 23.3289 20.1321 23.3159 20.1928 23.2907C20.2535 23.2655 20.3087 23.2285 20.3552 23.182L21.7692 21.767C21.8169 21.7208 21.8549 21.6655 21.881 21.6045C21.9071 21.5435 21.9208 21.4778 21.9213 21.4115C21.9217 21.3451 21.909 21.2792 21.8838 21.2178C21.8586 21.1564 21.8213 21.1007 21.7743 21.0538C21.7273 21.0069 21.6714 20.9699 21.61 20.9448C21.5485 20.9197 21.4826 20.9072 21.4162 20.9079C21.3499 20.9085 21.2843 20.9224 21.2233 20.9487C21.1623 20.975 21.1072 21.0131 21.0612 21.061ZM16.8182 21.767C16.5363 21.4864 16.1548 21.3289 15.7572 21.3289C15.3595 21.3289 14.978 21.4864 14.6962 21.767L13.9892 22.475C13.8954 22.5687 13.8428 22.6959 13.8428 22.8285C13.8428 22.961 13.8954 23.0882 13.9892 23.182L16.8182 26.01C16.8645 26.0568 16.9196 26.0939 16.9804 26.1193C17.0411 26.1446 17.1063 26.1577 17.1722 26.1577C17.238 26.1577 17.3032 26.1446 17.364 26.1193C17.4247 26.0939 17.4799 26.0568 17.5262 26.01C17.6199 25.9162 17.6726 25.789 17.6726 25.6565C17.6726 25.5239 17.6199 25.3967 17.5262 25.303L15.0502 22.829L15.4042 22.475C15.4982 22.3814 15.6255 22.3289 15.7582 22.3289C15.8908 22.3289 16.0181 22.3814 16.1122 22.475L18.2332 24.597C18.3275 24.688 18.4538 24.7384 18.5849 24.7373C18.716 24.7362 18.8414 24.6836 18.9341 24.5909C19.0268 24.4982 19.0794 24.3728 19.0805 24.2417C19.0816 24.1106 19.0312 23.9843 18.9402 23.89L16.8182 21.767ZM23.1822 13.99C23.0879 13.8989 22.9616 13.8485 22.8305 13.8496C22.6994 13.8508 22.574 13.9034 22.4813 13.9961C22.3886 14.0888 22.336 14.2142 22.3348 14.3453C22.3337 14.4764 22.3841 14.6027 22.4752 14.697L24.5972 16.818C24.6799 16.9139 24.7233 17.0377 24.7186 17.1643C24.714 17.2909 24.6616 17.4111 24.5719 17.5007C24.4823 17.5904 24.3621 17.6428 24.2355 17.6474C24.1089 17.6521 23.9851 17.6087 23.8892 17.526L21.7682 15.404C21.7217 15.3575 21.6665 15.3207 21.6058 15.2956C21.5451 15.2705 21.48 15.2576 21.4143 15.2577C21.3486 15.2577 21.2836 15.2707 21.2229 15.2959C21.1622 15.3211 21.1071 15.358 21.0607 15.4045C20.9669 15.4984 20.9143 15.6256 20.9144 15.7583C20.9144 15.824 20.9274 15.8891 20.9526 15.9497C20.9778 16.0104 21.0147 16.0655 21.0612 16.112L23.1822 18.234C23.266 18.3296 23.3104 18.4536 23.3062 18.5807C23.302 18.7078 23.2497 18.8286 23.1597 18.9185C23.0698 19.0085 22.949 19.0608 22.8219 19.065C22.6948 19.0692 22.5708 19.0248 22.4752 18.941L20.3542 16.819C20.2599 16.7279 20.1336 16.6775 20.0025 16.6786C19.8714 16.6798 19.746 16.7324 19.6533 16.8251C19.5606 16.9178 19.508 17.0432 19.5068 17.1743C19.5057 17.3054 19.5561 17.4317 19.6472 17.526L21.7682 19.648C22.0512 19.931 22.4282 20.087 22.8292 20.087C23.2302 20.087 23.6062 19.931 23.8902 19.648C24.1542 19.384 24.3072 19.04 24.3282 18.67C24.6177 18.6548 24.8966 18.5559 25.1311 18.3853C25.3655 18.2148 25.5454 17.9798 25.649 17.709C25.7525 17.4382 25.7752 17.1431 25.7144 16.8596C25.6535 16.5762 25.5117 16.3164 25.3062 16.112L23.1822 13.99Z" fill="white"/>
</g>
<defs>
<clipPath id="clip0_126_22902">
<rect width="24" height="24" fill="white" transform="translate(8 8)"/>
</clipPath>
</defs>
</svg>
