<svg width="40" height="40" viewBox="0 0 40 40" fill="none" xmlns="http://www.w3.org/2000/svg">
<g opacity="0.2">
<circle cx="20" cy="20" r="20" fill="#16DB93"/>
</g>
<path d="M21.0584 17.4986C21.8767 17.9635 22.5198 18.3288 22.9779 18.6635C23.4392 19.0004 23.7803 19.3526 23.9025 19.8169C23.9921 20.1574 23.9921 20.5156 23.9025 20.8561C23.7803 21.3204 23.4392 21.6726 22.9779 22.0096C22.5198 22.3442 21.8767 22.7095 21.0584 23.1744C20.2679 23.6235 19.6013 24.0022 19.0953 24.2175C18.5852 24.4344 18.1201 24.5444 17.6681 24.4163C17.336 24.3222 17.0337 24.1435 16.7903 23.8979C16.4598 23.5645 16.3272 23.1037 16.2644 22.5492C16.2021 21.9987 16.2021 21.2781 16.2021 20.3616V20.3616V20.3114V20.3114C16.2021 19.3949 16.2021 18.6743 16.2644 18.1238C16.3272 17.5693 16.4598 17.1085 16.7903 16.7752C17.0337 16.5295 17.336 16.3508 17.6681 16.2567C18.1201 16.1286 18.5852 16.2386 19.0953 16.4556C19.6013 16.6708 20.2679 17.0495 21.0584 17.4986Z" fill="#16DB93"/>
<path d="M22.9786 18.6637C23.4399 19.0006 23.781 19.3528 23.9032 19.8171C23.9928 20.1576 23.9928 20.5158 23.9032 20.8563C23.781 21.3206 23.4399 21.6728 22.9786 22.0097C22.5205 22.3444 21.8774 22.7097 21.0591 23.1746C20.2686 23.6237 19.6021 24.0024 19.096 24.2176C18.5859 24.4346 18.1208 24.5446 17.6689 24.4165C17.3367 24.3224 17.0344 24.1437 16.791 23.8981C16.4605 23.5647 16.3279 23.1039 16.2651 22.5494C16.2271 22.2135 16.2123 21.8142 16.2065 21.3457L22.1438 18.124C22.4684 18.3177 22.7471 18.4946 22.9786 18.6637Z" fill="#16DB93"/>
<path opacity="0.4" d="M18.8285 29.2265C18.7939 29.4056 18.6972 29.5668 18.5554 29.6817C18.4135 29.7966 18.2358 29.8577 18.0533 29.8544H17.906C16.6134 29.5953 15.3853 29.0814 14.2933 28.3427C14.1246 28.2278 14.008 28.051 13.9689 27.8507C13.9297 27.6505 13.971 27.4428 14.084 27.2728C14.1409 27.1882 14.214 27.1157 14.299 27.0594C14.384 27.003 14.4793 26.964 14.5794 26.9446C14.6795 26.9251 14.7824 26.9256 14.8823 26.946C14.9822 26.9664 15.0771 27.0064 15.1616 27.0635C16.0838 27.6833 17.1191 28.1154 18.2083 28.3349C18.4079 28.3727 18.5847 28.4872 18.7006 28.6539C18.8166 28.8207 18.8625 29.0262 18.8285 29.2265ZM12.8126 24.6835C12.8693 24.7684 12.9088 24.8637 12.9286 24.9639C12.9484 25.0641 12.9482 25.1673 12.9281 25.2674C12.9079 25.3675 12.8681 25.4627 12.811 25.5474C12.754 25.6321 12.6807 25.7048 12.5955 25.7611C12.4694 25.8459 12.3211 25.8917 12.1691 25.8929C12.0414 25.8922 11.9159 25.86 11.8036 25.7992C11.6914 25.7383 11.5959 25.6507 11.5257 25.544C10.793 24.4412 10.2821 23.2062 10.0217 21.9081C10.0023 21.8063 10.0032 21.7016 10.0243 21.6002C10.0454 21.4987 10.0863 21.4024 10.1446 21.3167C10.2623 21.1437 10.444 21.0246 10.6496 20.9855C10.8552 20.9465 11.0679 20.9907 11.241 21.1084C11.414 21.2262 11.5331 21.4079 11.5722 21.6135C11.7811 22.708 12.2025 23.751 12.8126 24.6835ZM12.8203 15.2719C12.1952 16.2102 11.7654 17.2649 11.5567 18.3729C11.522 18.5521 11.4253 18.7133 11.2835 18.8282C11.1417 18.943 10.9639 19.0042 10.7814 19.0009C10.73 19.0085 10.6778 19.0085 10.6264 19.0009C10.425 18.9615 10.2475 18.8439 10.1328 18.6739C10.018 18.5039 9.97523 18.2953 10.0139 18.0938C10.266 16.7726 10.78 15.5153 11.5257 14.3959C11.5832 14.3109 11.6569 14.238 11.7426 14.1815C11.8282 14.125 11.9242 14.0859 12.025 14.0664C12.1258 14.047 12.2294 14.0476 12.3299 14.0682C12.4305 14.0888 12.526 14.129 12.611 14.1865C12.696 14.2441 12.7689 14.3178 12.8254 14.4034C12.8819 14.4891 12.921 14.5851 12.9405 14.6859C12.9599 14.7867 12.9593 14.8903 12.9387 14.9908C12.9181 15.0914 12.8779 15.1869 12.8203 15.2719ZM14.1383 12.6438C14.0261 12.4729 13.9859 12.2646 14.0266 12.0642C14.0672 11.8638 14.1854 11.6876 14.3553 11.5739C15.4563 10.841 16.6924 10.3349 17.9913 10.0855C18.1969 10.0454 18.41 10.0886 18.5837 10.2056C18.7575 10.3227 18.8776 10.5039 18.9177 10.7095C18.9578 10.9151 18.9146 11.1283 18.7975 11.302C18.6805 11.4757 18.4992 11.5959 18.2936 11.636C17.1859 11.8457 16.1314 12.2754 15.1926 12.8996C15.0647 12.9507 14.9256 12.9667 14.7895 12.9461C14.6633 12.9502 14.5379 12.9234 14.4244 12.868C14.311 12.8126 14.2127 12.7303 14.1383 12.6283V12.6438ZM29.9999 19.9234C30.0008 22.2457 29.1996 24.497 27.7319 26.2967C26.2642 28.0963 24.22 29.3339 21.9451 29.8001H21.79C21.5844 29.8207 21.379 29.7587 21.2191 29.6279C21.0592 29.497 20.9578 29.308 20.9372 29.1024C20.9167 28.8968 20.9786 28.6915 21.1095 28.5315C21.2403 28.3716 21.4293 28.2702 21.635 28.2496C23.5627 27.8582 25.2959 26.8123 26.5408 25.2892C27.7857 23.7662 28.4657 21.8595 28.4657 19.8924C28.4657 17.9253 27.7857 16.0187 26.5408 14.4956C25.2959 12.9725 23.5627 11.9266 21.635 11.5352C21.5352 11.5148 21.4404 11.475 21.356 11.4181C21.2716 11.3611 21.1993 11.288 21.1431 11.2031C21.0869 11.1181 21.0481 11.0229 21.0287 10.9229C21.0094 10.823 21.0099 10.7202 21.0303 10.6204C21.0506 10.5206 21.0904 10.4258 21.1474 10.3414C21.2044 10.257 21.2774 10.1847 21.3624 10.1285C21.4473 10.0724 21.5425 10.0335 21.6425 10.0141C21.7425 9.99478 21.8453 9.99531 21.9451 10.0157C24.2253 10.483 26.2734 11.7251 27.7417 13.5312C29.21 15.3372 30.0079 17.5958 29.9999 19.9234Z" fill="#16DB93"/>
</svg>
