<svg width="40" height="40" viewBox="0 0 40 40" fill="none" xmlns="http://www.w3.org/2000/svg">
<g opacity="0.2">
<circle cx="20" cy="20" r="20" fill="#FFD700"/>
</g>
<path d="M19.9961 9.25C21.0454 9.25 21.8719 10.0425 22.3995 11.1119L24.1616 14.6652C24.215 14.7751 24.3417 14.93 24.5321 15.0716C24.7223 15.2131 24.9086 15.2912 25.0311 15.3118L28.2207 15.8461C29.3729 16.0397 30.3386 16.6045 30.6521 17.5879C30.9653 18.5705 30.5064 19.5916 29.6778 20.4216L29.677 20.4225L27.1991 22.9209C27.1009 23.0199 26.9909 23.2064 26.9219 23.4494C26.8534 23.6908 26.8473 23.9107 26.8784 24.0527L26.8788 24.0547L27.5877 27.1454C27.8818 28.4317 27.7843 29.7073 26.8771 30.3742C25.9667 31.0433 24.7227 30.7467 23.5925 30.0736L20.6026 28.289C20.477 28.214 20.2614 28.1532 20.0011 28.1532C19.7427 28.1532 19.5226 28.2132 19.3888 28.291L19.3869 28.2921L16.4029 30.0732C15.2741 30.7487 14.0315 31.04 13.1211 30.3702C12.2145 29.7032 12.1121 28.43 12.4071 27.1447L13.1159 24.0547L13.1163 24.0527C13.1474 23.9107 13.1413 23.6908 13.0728 23.4494C13.0038 23.2064 12.8938 23.0199 12.7956 22.9209L10.3159 20.4206C9.49265 19.5906 9.03521 18.5704 9.34595 17.5893C9.65759 16.6052 10.6214 16.0398 11.7743 15.8461L14.9613 15.3122L14.9623 15.312C15.0792 15.2917 15.2627 15.2146 15.4525 15.0727C15.6426 14.9305 15.7696 14.7754 15.8231 14.6652L15.8258 14.6597L17.5856 11.111L17.5863 11.1096C18.119 10.0411 18.948 9.25 19.9961 9.25Z" fill="#FFD700"/>
<path d="M17.5863 11.1096C18.119 10.0411 18.948 9.25 19.9961 9.25V28.1532C19.7399 28.154 19.5217 28.2137 19.3888 28.291L19.3869 28.2921L16.4029 30.0732C15.2741 30.7487 14.0315 31.04 13.1211 30.3702C12.2145 29.7032 12.1121 28.43 12.4071 27.1447L13.1159 24.0547L13.1163 24.0527C13.1474 23.9107 13.1413 23.6908 13.0728 23.4494C13.0038 23.2064 12.8938 23.0199 12.7956 22.9209L10.3159 20.4206C9.49265 19.5906 9.03521 18.5704 9.34595 17.5893C9.65759 16.6052 10.6214 16.0398 11.7743 15.8461L14.9613 15.3122L14.9623 15.312C15.0792 15.2917 15.2627 15.2146 15.4525 15.0727C15.6426 14.9305 15.7696 14.7754 15.8231 14.6652L15.8258 14.6597L17.5856 11.111L17.5863 11.1096Z" fill="#FFD700"/>
<circle opacity="0.4" cx="20" cy="19" r="2" fill="white"/>
</svg>
