<svg width="40" height="40" viewBox="0 0 40 40" fill="none" xmlns="http://www.w3.org/2000/svg">
<g opacity="0.2">
<circle cx="20" cy="20" r="20" fill="#B5E2FA"/>
</g>
<path opacity="0.4" d="M9.25 14C9.25 11.3766 11.3766 9.25 14 9.25C16.6234 9.25 18.75 11.3766 18.75 14C18.75 16.6234 16.6234 18.75 14 18.75C11.3766 18.75 9.25 16.6234 9.25 14Z" fill="#B5E2FA"/>
<path d="M9.25 26C9.25 23.3766 11.3766 21.25 14 21.25C16.6234 21.25 18.75 23.3766 18.75 26C18.75 28.6234 16.6234 30.75 14 30.75C11.3766 30.75 9.25 28.6234 9.25 26Z" fill="#B5E2FA"/>
<path opacity="0.4" d="M21.25 26C21.25 23.3766 23.3766 21.25 26 21.25C28.6234 21.25 30.75 23.3766 30.75 26C30.75 28.6234 28.6234 30.75 26 30.75C23.3766 30.75 21.25 28.6234 21.25 26Z" fill="#B5E2FA"/>
<path d="M21.25 14C21.25 11.3766 23.3766 9.25 26 9.25C28.6234 9.25 30.75 11.3766 30.75 14C30.75 16.6234 28.6234 18.75 26 18.75C23.3766 18.75 21.25 16.6234 21.25 14Z" fill="#B5E2FA"/>
</svg>
