<svg width="40" height="40" viewBox="0 0 40 40" fill="none" xmlns="http://www.w3.org/2000/svg">
<g opacity="0.2">
<circle cx="20" cy="20" r="20" fill="#2C699A"/>
</g>
<path opacity="0.4" d="M19.9448 9.75H20.0591C22.2504 9.74999 23.9716 9.74998 25.3154 9.93059C26.6924 10.1157 27.785 10.5027 28.6434 11.3609C29.5018 12.2191 29.889 13.3114 30.0741 14.688C30.2054 15.664 30.2413 16.8391 30.2511 18.2489C30.2544 18.7194 30.256 18.9546 30.1093 19.1023C29.9626 19.25 29.7262 19.25 29.2533 19.25H10.7506C10.2778 19.25 10.0413 19.25 9.89461 19.1023C9.74792 18.9546 9.74956 18.7194 9.75283 18.2489C9.76264 16.8391 9.79853 15.664 9.92979 14.688C10.1149 13.3114 10.5021 12.2191 11.3605 11.3609C12.2189 10.5027 13.3115 10.1157 14.6885 9.93059C16.0323 9.74998 17.7535 9.74999 19.9448 9.75Z" fill="#2C699A"/>
<path d="M16 13C15.1716 13 14.5 13.6716 14.5 14.5C14.5 15.3284 15.1716 16 16 16C16.8284 16 17.5 15.3284 17.5 14.5C17.5 13.6716 16.8284 13 16 13Z" fill="#2C699A"/>
<path d="M20.75 13.75C20.3358 13.75 20 14.0858 20 14.5C20 14.9142 20.3358 15.25 20.75 15.25L24.75 15.25C25.1642 15.25 25.5 14.9142 25.5 14.5C25.5 14.0858 25.1642 13.75 24.75 13.75L20.75 13.75Z" fill="#2C699A"/>
<path opacity="0.4" d="M10.7506 20.75H29.2533C29.7262 20.75 29.9626 20.75 30.1093 20.8977C30.256 21.0454 30.2544 21.2806 30.2511 21.7511C30.2413 23.1609 30.2054 24.336 30.0741 25.312C29.889 26.6886 29.5018 27.7809 28.6434 28.6391C27.785 29.4973 26.6924 29.8843 25.3154 30.0694C23.9716 30.25 22.2504 30.25 20.0591 30.25H19.9447C17.7534 30.25 16.0323 30.25 14.6885 30.0694C13.3115 29.8843 12.2189 29.4973 11.3605 28.6391C10.5021 27.7809 10.1149 26.6886 9.92979 25.312C9.79853 24.336 9.76264 23.1609 9.75283 21.7511C9.74956 21.2806 9.74792 21.0454 9.89461 20.8977C10.0413 20.75 10.2778 20.75 10.7506 20.75Z" fill="#2C699A"/>
<path fill-rule="evenodd" clip-rule="evenodd" d="M16 24C15.1716 24 14.5 24.6716 14.5 25.5C14.5 26.3284 15.1716 27 16 27C16.8284 27 17.5 26.3284 17.5 25.5C17.5 24.6716 16.8284 24 16 24ZM20.75 24.75C20.3358 24.75 20 25.0858 20 25.5C20 25.9142 20.3358 26.25 20.75 26.25L24.75 26.25C25.1642 26.25 25.5 25.9142 25.5 25.5C25.5 25.0858 25.1642 24.75 24.75 24.75L20.75 24.75Z" fill="#2C699A"/>
</svg>
