<svg width="40" height="40" viewBox="0 0 40 40" fill="none" xmlns="http://www.w3.org/2000/svg">
<g opacity="0.2">
<circle cx="20" cy="20" r="20" fill="#9FA0FF"/>
</g>
<path d="M11 19C11 15.2503 11 13.3754 11.9549 12.0611C12.2633 11.6366 12.6366 11.2633 13.0611 10.9549C14.3754 10 16.2503 10 20 10C23.7497 10 25.6246 10 26.9389 10.9549C27.3634 11.2633 27.7367 11.6366 28.0451 12.0611C29 13.3754 29 15.2503 29 19V21C29 24.7497 29 26.6246 28.0451 27.9389C27.7367 28.3634 27.3634 28.7367 26.9389 29.0451C25.6246 30 23.7497 30 20 30C16.2503 30 14.3754 30 13.0611 29.0451C12.6366 28.7367 12.2633 28.3634 11.9549 27.9389C11 26.6246 11 24.7497 11 21V19Z" fill="#9FA0FF" fill-opacity="0.4"/>
<path d="M15.2625 17.465V13.9629H14.4039C14.2968 13.9629 14.1941 13.9179 14.1183 13.8376C14.0426 13.7574 14 13.6486 14 13.5351C14 13.4217 14.0426 13.3129 14.1183 13.2326C14.1941 13.1524 14.2968 13.1073 14.4039 13.1073H16.9725C17.0796 13.1073 17.1823 13.1524 17.2581 13.2326C17.3338 13.3129 17.3764 13.4217 17.3764 13.5351C17.3764 13.6486 17.3338 13.7574 17.2581 13.8376C17.1823 13.9179 17.0796 13.9629 16.9725 13.9629H16.1139V17.465C16.1139 17.5212 16.1035 17.5768 16.0832 17.6287C16.0629 17.6806 16.0331 17.7277 15.9956 17.7675C15.9581 17.8072 15.9136 17.8387 15.8646 17.8602C15.8156 17.8817 15.763 17.8928 15.71 17.8928H15.6663C15.5592 17.8927 15.4565 17.8477 15.3807 17.7674C15.305 17.6872 15.2625 17.5784 15.2625 17.465ZM21.1141 16.9105L21.3364 17.1929C21.369 17.2342 21.3933 17.282 21.4079 17.3335C21.4225 17.385 21.4272 17.4391 21.4216 17.4925C21.416 17.546 21.4002 17.5976 21.3753 17.6445C21.3504 17.6913 21.3167 17.7323 21.2765 17.7651C21.199 17.8281 21.1014 17.8568 21.0044 17.8452C20.9073 17.8335 20.8183 17.7823 20.7562 17.7025L20.6596 17.5784C20.3607 17.8596 20.0012 18 19.5806 18C19.3448 18 19.125 17.9586 18.9211 17.876C18.7167 17.7939 18.539 17.678 18.3879 17.5284C18.236 17.3788 18.1145 17.198 18.0309 16.9969C17.9446 16.7924 17.9015 16.5672 17.9015 16.322C17.9015 16.0549 17.9637 15.8008 18.088 15.5599C18.2117 15.3195 18.3853 15.1144 18.6087 14.9452C18.5306 14.8332 18.4649 14.712 18.413 14.5841C18.3623 14.4596 18.3364 14.3253 18.337 14.1897C18.337 14.0249 18.3658 13.8705 18.4223 13.7252C18.4777 13.5829 18.5604 13.4544 18.6652 13.3477C18.7705 13.2412 18.8948 13.1563 19.0375 13.0937C19.1808 13.0317 19.3386 13.0001 19.5111 13.0001C19.8141 13.0001 20.0571 13.0746 20.2399 13.2242C20.2902 13.2653 20.3367 13.3092 20.3792 13.3562C20.5522 13.547 20.508 13.8595 20.2871 13.9831L20.2475 14.0052C20.1114 14.0814 19.9509 14.0392 19.8449 13.921C19.7401 13.8042 19.6021 13.7686 19.5233 13.7686C19.4016 13.7686 19.3045 13.8067 19.2331 13.8823C19.1617 13.9585 19.1258 14.0541 19.1258 14.1701C19.1258 14.2414 19.1407 14.3065 19.17 14.3669C19.1993 14.4273 19.2393 14.4904 19.2901 14.5573L20.647 16.3087L20.8329 15.9884C20.8574 15.9469 20.8894 15.9109 20.927 15.8824C20.9646 15.854 21.0071 15.8337 21.0521 15.8227C21.0971 15.8117 21.1438 15.8101 21.1893 15.8182C21.2349 15.8263 21.2786 15.8438 21.3177 15.8697C21.3569 15.8956 21.3909 15.9294 21.4178 15.9693C21.4446 16.0091 21.4638 16.0541 21.4742 16.1018C21.4846 16.1495 21.486 16.1989 21.4784 16.2472C21.4708 16.2954 21.4543 16.3416 21.4298 16.3831L21.1141 16.9105ZM19.6186 17.2113C19.8538 17.2113 20.0474 17.1373 20.199 16.9905L19.0568 15.5268C18.9418 15.617 18.8488 15.735 18.7856 15.871C18.7225 16.0069 18.6905 16.1462 18.6905 16.2888C18.6905 16.4314 18.7162 16.5597 18.7666 16.6728C18.815 16.7838 18.8848 16.883 18.9715 16.9638C19.0578 17.0437 19.1569 17.1051 19.2683 17.1476C19.3797 17.1901 19.4963 17.2113 19.6186 17.2113ZM25.8705 16.8122C26.0554 16.9978 26.0395 17.3123 25.8408 17.4811C25.7032 17.5982 25.5527 17.6971 25.3926 17.7758C25.0896 17.9248 24.7511 17.9999 24.3767 17.9999C24.0398 17.9999 23.7276 17.9352 23.4395 17.8057C23.1514 17.6768 22.9017 17.5006 22.6916 17.2781C22.4811 17.0551 22.3152 16.7912 22.193 16.4856C22.0707 16.1805 22.0101 15.8519 22.0101 15.4999C22.0101 15.148 22.0707 14.8195 22.193 14.5138C22.3152 14.2086 22.4811 13.9448 22.6916 13.7218C22.9017 13.4993 23.1514 13.3231 23.4395 13.1942C23.7276 13.0647 24.0398 13 24.3767 13C24.7384 13 25.0572 13.0669 25.3325 13.2007C25.4787 13.2717 25.617 13.3598 25.7446 13.4635C25.9319 13.6153 25.9411 13.9122 25.7716 14.0858L25.7356 14.1228C25.5938 14.268 25.3757 14.2742 25.2186 14.1477C25.151 14.0933 25.0793 14.0447 25.0044 14.0024C24.8297 13.9045 24.6228 13.8556 24.3829 13.8556C24.1724 13.8556 23.9746 13.8948 23.7897 13.9725C23.6044 14.0508 23.4435 14.1607 23.3069 14.3032C23.1703 14.4462 23.0619 14.6187 22.9818 14.8215C22.9017 15.0244 22.8622 15.2501 22.8622 15.4998C22.8622 15.7495 22.9018 15.9752 22.9818 16.1781C23.062 16.381 23.1704 16.5534 23.3069 16.6959C23.4435 16.839 23.6042 16.9489 23.7897 17.0272C23.9746 17.1049 24.1724 17.1441 24.3829 17.1441C24.6351 17.1441 24.8596 17.0897 25.0552 16.9803C25.1478 16.9285 25.2352 16.8668 25.316 16.7962C25.4798 16.6538 25.7165 16.6576 25.8705 16.8122Z" fill="#9FA0FF"/>
<path d="M15 24H25M15 21H20" stroke="#9FA0FF" stroke-linecap="round" stroke-linejoin="round"/>
<path d="M15 27H25" stroke="#9FA0FF" stroke-linecap="round" stroke-linejoin="round"/>
</svg>
