<svg width="40" height="40" viewBox="0 0 40 40" fill="none" xmlns="http://www.w3.org/2000/svg">
<g opacity="0.2">
<circle cx="20" cy="20" r="20" fill="#A5BE00"/>
</g>
<path d="M25.9933 17.3833C25.9826 16.4773 25.9515 15.6942 25.8619 15.0278C25.8573 14.9937 25.8526 14.9597 25.8477 14.9259C26.3059 14.5656 26.7204 14.262 27.0944 14.0361C27.7947 13.613 28.6822 13.2587 29.5929 13.7102C30.4895 14.1546 30.7673 15.0655 30.8829 15.8828C30.9991 16.7045 30.9991 17.8101 30.999 19.1382V20.8645C30.9991 22.1926 30.9991 23.2982 30.8829 24.1198C30.7673 24.9371 30.4895 25.848 29.5929 26.2925C28.6822 26.7439 27.7947 26.3896 27.0944 25.9666C26.7204 25.7406 26.3059 25.437 25.8477 25.0768C25.8526 25.0431 25.8574 25.0092 25.8619 24.9752C25.9515 24.3087 25.9826 23.5255 25.9933 22.6193C26.951 23.4085 27.6124 23.9429 28.1285 24.2547C28.3999 24.4186 28.5637 24.4778 28.6531 24.4955C28.6728 24.4994 28.6863 24.5007 28.6942 24.5012C28.6982 24.5014 28.7027 24.5013 28.7027 24.5013L28.7047 24.5005C28.709 24.4984 28.7108 24.4966 28.7108 24.4966C28.7136 24.4936 28.7286 24.4774 28.7499 24.4358C28.7977 24.3422 28.8567 24.1641 28.9026 23.8397C28.9966 23.1754 28.999 22.2135 28.999 20.7832V19.2194C28.999 17.7892 28.9966 16.8273 28.9026 16.1629C28.8567 15.8385 28.7977 15.6604 28.7499 15.5669C28.7286 15.5252 28.714 15.5095 28.7112 15.5065C28.7112 15.5065 28.709 15.5043 28.7047 15.5021L28.7032 15.5014C28.7032 15.5014 28.6982 15.5013 28.6942 15.5015C28.6863 15.5019 28.6728 15.5032 28.6531 15.5071C28.5637 15.5248 28.3999 15.584 28.1285 15.748C27.6124 16.0598 26.951 16.5942 25.9933 17.3833Z" fill="#A5BE00"/>
<path opacity="0.4" d="M18.072 11H16.928C15.3393 11 14.0461 10.9999 13.0263 11.1371C11.9623 11.2801 11.0474 11.5887 10.318 12.318C9.58869 13.0474 9.28011 13.9623 9.13706 15.0263C8.99995 16.0461 8.99997 17.3393 9 18.9279V21.072C8.99997 22.6607 8.99995 23.9539 9.13706 24.9737C9.28011 26.0377 9.58869 26.9527 10.318 27.682C11.0474 28.4113 11.9623 28.7199 13.0263 28.8629C14.0462 29.0001 15.3393 29 16.928 29H18.072C19.6607 29 20.9538 29.0001 21.9737 28.8629C23.0377 28.7199 23.9527 28.4113 24.682 27.682C25.4113 26.9527 25.7199 26.0377 25.8629 24.9737C26.0001 23.9538 26 22.6607 26 21.072V18.928C26 17.3393 26.0001 16.0462 25.8629 15.0263C25.7199 13.9623 25.4113 13.0474 24.682 12.318C23.9527 11.5887 23.0377 11.2801 21.9737 11.1371C20.9539 10.9999 19.6607 11 18.072 11Z" fill="#A5BE00"/>
<path d="M21.9999 15.0583V17.2292V17.2489V22.5807L21.9997 22.599L21.9999 22.6306C21.9999 23.7472 21.1605 24.6523 20.1249 24.6523C19.0894 24.6523 18.25 23.7472 18.25 22.6306C18.25 21.5141 19.0894 20.609 20.1249 20.609C20.3441 20.609 20.5545 20.6496 20.7499 20.7241V18.4671C19.8028 19.0539 18.307 19.7805 16.375 19.9137V23.6415C16.375 24.944 15.3956 26 14.1875 26C12.9794 26 12 24.944 12 23.6415C12 22.3389 12.9794 21.2829 14.1875 21.2829C14.523 21.2829 14.8408 21.3643 15.125 21.5099V17.9136L15.125 17.8803V17.8803C15.1249 17.6025 15.1249 17.3383 15.1485 17.1214C15.1742 16.8849 15.2365 16.6032 15.4332 16.3602C15.6377 16.1077 15.9073 16.0057 16.1237 15.948C16.3323 15.8925 16.5953 15.8538 16.8821 15.8116L16.9123 15.8072C18.6669 15.5491 19.9473 14.7601 20.6375 14.2706L20.6548 14.2583C20.725 14.2083 20.8262 14.1363 20.9208 14.0885C21.0204 14.0382 21.3016 13.9154 21.6059 14.0923C21.908 14.2679 21.9689 14.5852 21.9851 14.705C22.0003 14.8164 22.0001 14.9468 22 15.0361L21.9999 15.0583Z" fill="#A5BE00"/>
</svg>
