<svg width="40" height="40" viewBox="0 0 40 40" fill="none" xmlns="http://www.w3.org/2000/svg">
<g opacity="0.2">
<circle cx="20" cy="20" r="20" fill="#735751"/>
</g>
<g opacity="0.4">
<path d="M17.9478 9.77037C18.6511 9.44359 19.2946 9.25 19.9992 9.25C20.7038 9.25 21.3474 9.44359 22.0506 9.77037L27.6384 13.0794C28.2661 13.5408 28.7474 14.0131 29.0959 14.6321C29.4437 15.2501 29.6008 15.9109 29.6762 16.6951V23.3049C29.6008 24.0891 29.4437 24.7499 29.0959 25.3679C28.7474 25.9869 28.2661 26.4592 27.6384 26.9206L22.0506 30.2296C21.3474 30.5564 20.7038 30.75 19.9992 30.75C19.2946 30.75 18.6511 30.5564 17.9478 30.2296L12.36 26.9206C11.7324 26.4592 11.251 25.9869 10.9026 25.3679C10.5547 24.7499 10.3976 24.0891 10.3223 23.3049V16.6951C10.3976 15.9109 10.5547 15.2501 10.9026 14.6321C11.251 14.0131 11.7324 13.5408 12.36 13.0794L17.9478 9.77037Z" fill="#735751"/>
</g>
<path d="M19.9998 23H20.0088" stroke="#735751" stroke-width="2" stroke-linecap="round" stroke-linejoin="round"/>
<path d="M20.0078 20L20.0078 16" stroke="#735751" stroke-width="1.5" stroke-linecap="round" stroke-linejoin="round"/>
</svg>
